<mxfile host="65bd71144e">
    <diagram id="oDvUDDWWUR2SO-a3PwoA" name="Page-1">
        <mxGraphModel dx="427" dy="390" grid="1" gridSize="10" guides="1" tooltips="1" connect="1" arrows="1" fold="1" page="1" pageScale="1" pageWidth="827" pageHeight="1169" math="0" shadow="0">
            <root>
                <mxCell id="0"/>
                <mxCell id="1" parent="0"/>
                <mxCell id="2" value="" style="shape=image;verticalLabelPosition=bottom;labelBackgroundColor=default;verticalAlign=top;aspect=fixed;imageAspect=0;image=data:image/png,iVBORw0KGgoAAAANSUhEUgAAAggAAAENCAYAAABq2Z1NAAAAAXNSR0IArs4c6QAAIABJREFUeF7snQecJVWd738Vb76dw+TAzDDDDMyQs0hQyYu46iKK66KC4AN5umv66D5ddVl3VwERAVEURQHBQB4RJA1hhszMMDChJ/Z07ts3V36f/7l9e25331T31u2+DXXem5Xurjp1zr9O1fnWP3LnXXaLBQcadeJIRzbGwgFolQYgC4qNs8o/NKo3IKYHyz9hio/c8MiNiPS8jfe///3Yt28fhoeH8ZnPfAayLMOyans3IsMRRCIRPLr2UbS0tGDOnDl48skn4fUHsWjBvCmWhHu595oEDMPA/v378dZbb2Hv3r3Qdb1qEfT19uFnN/0Max9bi9mzZ1fdH3XAcRwEQYAkSQgGnXuXDA4OwufzsWfdba4EaiUBzilAoAFONSRwsNDh6YPAVf9ymCxgDsNaM5KGt1ayr7rfiYCQSqWwYcMGhEIhaJpWdf/FOti+fTt2bN+Bq66+il0vCwiiKGLp0qU1vbbbuSuBLCBs3rwZu3fvdmS99/b24rZbb8Pjf38cxx57LNvcnWi7du1iG/msWbOc6I710d3dzcDDBQTHROp2lEcC3PmX3+L4x6Y5RaIWOBPtch94znD8ihZ4DKgtUM36JfR8gLBu3TqmPaCvqlq2F154AZs2bsL9D9yP5uZmFxBqKWy370kScAHBBQT3sai9BLjLv/ZTayTFI6VyMExniHmqtAkib6Bd7gcH5wHBsAT0qR0wLedk4vTtLAQIpG7ds2eP05cb199zzz2HN994E2v/unacicHVINRU7G7noxJwAcEFBPdhsC8BnueZZow+Ik2z9Kc89/XvXs80CIbJYyjJYyQpQDWoA/sXz3dG6SFUfh2eMxEQkwjwCQhMi+DQoAGkTR+G1GYHe6x8noXOnImAIHLACo8FMWdSdNf28zz0dh0cP37FjHRL0NLOy87tcWZLwAUEFxBm9grOP3rawBsaGhCPx5nZjPxWAoEAotEoyIRcTSOT1FlnnYW5c+diZGQEf/rTn5BOF3+5MkDIvahpcgwQYmkBgwkeBsFCNaOaAt8EjrMQEJLw8SlIvAYO1WNJXA9hRA9XOfPanj4TAaFBAH47J4kG4YDWR7c4/Mrjx+DFuyF6E+M1FTcvQ/8OqbaCdHufcRJwAcEFhBm3aEsM2OPx4MILL8Rpp52Gl19+GXfeeSfOPfdcnHHGGey/n3jiiYqmTNBBWgACjR//+McIh8Og5+crX/kK82XJ/j2frwH3te9cZxVyxiGTQ1Ll0BcXoWo8jCr33SpPL0s4pEnwCykEhQQ4zkCleBPRmpAw/GVdc7oOsgsIuQuglANWqWMrNTE0CsCdcxMI52gKdHC4XQ5g6JM7IXrj48S57mfLXUCYrgVWx9edakCgl2hTU1NRx0WKIqJxTWyuk2IdL6Q6GRo5en/xi1/EoYceCopQIb8ucgSnL/2jjjoKv/rVr7B27Vrbo6U1++lPfxrPP/88TjnlFBxxxBFja5iigKjfU089FQ899BC2bt06KfqN+8I1/88iT1ivz8dOLAYLI2kBQwkBila5CWKqIh1IqyByBhrEEci8akurQA6Kg1oLFKN+HRRppdgBBFpov7njN2MkecmnLwH5C+Rr5MNwx6/vQCKRYAv14k9ePOkwFxBsP6vuCQ5KwC4gEPCWguJiUQx+vx9XXnkl6CsvX6P+b7rpJhZq7AKCgzf6PdAVhdTS13x7ezvuvfdevPLKKzj44INx8cUXs/VG6/b222+3DQhkUvjc5z7HwuCp5Vv/2eeir68P3/jGNxCLxcZJnPv81d9mFgQWr8vzkD0eeDwyeF7Ie2tMC1B1HiMpAcNJ0irYh4WpgoTsBEir4BUUhIQYi3gopVUwLQG9ajtMi6/r5WkHEIaGhvCTG37CAIFo9eovXV0UEK6/7nq2WNra2nDlF690AaGuV8J7b3B2AIHCIP/85z/j4x//ODo6OgoKq54AIetIVmiwbpjjzF/zpJUijcHll1/O8mTcdtttDAxOP/10UJQYhazT139rayvuu+8+/PGPf8yroSokCfJl+MEPfsDOp0bvfnoWnn32WRaKTpoJGgM1+ij8/ve/Dwobzm1jgDDulxzHNg/SLGQJJt8gCA4UnWe+CuSzUIZT5LhupsLkkHtBcmokrUJATMDLpQuGR9LNSqIZw0kRmvMBEo6tbDuAQEmNfvmLX45pED7+Tx9n95jubzaxEmkMaBHRYrn7rruZBoGSIP3zZ/7ZMUAgH4RfzElNMDEAv5X8GP54N0TveKeZ529bgIGd+TUdjgnS7WjGSaAcQKC1rCgKXn/9ddx111249NJLsWTJkoLvtKkGBIKAFStWMJvwiy++OKbeJW0FffWRWjifRoJulgsIM27Jjhsw7THkW/DRj36UJZy744478KEPfQhr1qwZ8wnYsmUL7r//flxwwQWYP38+Hn30UeZYSGu6nEabPwHHl7/8ZfZRSGuGIIBMGPTOJ5PGMcccw6IZfvGLX+Dpp5+GqqqlASF7BAX48YLAEnJ4vR6IolRATQGoRiZUMqYIiKX5smFhqrUJY1oF3oCHU+ATFHi4NDjuAK4E/F54vQHoJoe4ymM4KSCpVu+DUc5NtXOMHUCgl2XWPkoesjf/7GYGAmeeeSaOOvootuhu/MmNzFOWwOHyL1zOPGizmeAmjqtSE4MgSliw8mQIYo75hl7kkbdw/LIuSOJ4l9i/Pi+ib9COVNxj3wsSKAcQKLsoqWbJU5s2WjKX0eZ7ySWXsLwdE5sdQCCNHD1H9KyQLfewww7DrbfeasvEkAWEs88+G/Q80Vej1+tlGwI9e/fccw/bPPI1FxBm9iqn9XLNNdcwuz/5FhAoLFy4cNz+Su9sus9kdiDfAfriJ5Cw46xIjok//OEPmRbhzTffZP9NEEBrjxwgP/nJT7J94Zvf/Ca6uromCTWvBiGf6KlDIhL64iT6IWjIb9MA0npmU42neegGBzJLlGpTrU04AEEWRF5nURAePp3xWwgHIUoHNjAK+SRNSVzh0R8XGDg4FQZaSi7F/m4HEHL7IdMBmRAIEM4+52xGkQQI9LtkMsleemSCIOos1CoFBPgasPefb0fSdyBCRDQNnL7pp7j9xJ8g4EmOu+RlP1+KV3a4GoRq1sm78dxyAIGcvH70ox+NxXvTVxOt6c9+9rPsZVwNINCLnV7eBAeHHHIIU9n+8pe/tAUIdH16p65evZp5rr/00kssBI3ggEwiZBculMXOBYSZvaopTTZpCwhcybeF/A8KNTqG1hY1Si0+0U+g0Hm0T5933nkMOGnfJj80eh527NjBnoN/+7d/Y88BrTHSVpHDIh2T28oGhHEnkQmC8ouPmiCydozcY2gDtSwOSY3HniGprAiI6dImZMdNJgi/kMasBh1eT35tCQEPARA5a5KmxCgDfmq1lCsFBPryufWWWxkgkGfroYcdyqiSHBPpa4sA4fOXfb5o7vhqAGHXv/wGCX8uIOg4882f4I6Tr0PAMz6K4XO3rMBL211AqNUamqn92gUE+pihF+Vxxx3HvtLzpSi2o0F45513QMeTCW7jxo04+uij8fDDD9sGhCwk0GZBkEDPJqmRi8EBneMCwkxduQfGTWty1apVzDkwu4eS3wGBLYHiCSecMGZuIEB47LHHbNXYIdD87ne/O05bRgBAUTW0bsk5MvuRT+//73znO9i2bVv1gJDbA01MIn8F0iyIYuaCOTnMydFvW58M1Ua5hOnSJtC8BN7CLG8/CBY8sswgKJ+2hAAopfHM9DCQEKA5mFyq3KVfKSAQMWZtTU88/gRee+01Rpj/cum/sAIw1OgFWszr2wWEcu+Se1wtJGAXEGgM9DImmz99sdMLshINAn2V0VccbdDkBEZATc8TvQffeOONigAhCwk0NoKOgYGBkiJzAaGkiGbEAWRq+PrXvz4GCDfccAP7mqe1+tWvfpV9rNH6qiSKgdYkaRDIfEFJl+gdT3tZtlG/pDEmYCbzA+VImJg4qSINQj7JZ0MkaWOhfzQx5okLEVv2i2VpEMZpIBzNi1j+WvEIBlql3rGr86QtkSRmVinksEnOmgk1E9kRVzhmVpkKxUKlgJArjYcfehjr169ncyOzAtloy2kuIJQjJfeYWkmgHEAgVer//u//jpkY6H1EL0Nyzlq8eLEtQCBwppAxek76+/tBPgiknqX/JT+BRYsW4Te/+U1enwE3D0KtVsHM75eiGHI1CNdddx3zRVm5ciUDB9pHyYmQAOGvf/2r7QnTuj3++OOZrwOBMUXyZJ3S//a3v7H8BwSmBAi0ric2xwAht2N6ECVJhCRK8PrD2LxPKMsPYeLgpsPkEJbTCPFDefEkW7aVXhL5cgiQVoGyUEbTAoOFtFae/4Xtuz56QqWAQNqD1197HaZlIplIMmqke9bY2AiO58BzPFavWV20UlzlgBDG/k/9HKkcHwTe1PH+zTfj1uNvQcAzPorhi79chFe78ofcVio397yZL4FyAIFst+QAlmvHp+eWwsjIYdGOBiELF4W0anSNrDZhYr8uIMz89VarGZCz7Gc+8xn2AUpriKJtKHqBohYoxJHWK5mCKcRx06ZNVQ2D4JiAmd7z1CdFN5TSVtUEELKzoIcp3NCGd3qligBhTBUyhdqENm8cMqJFr5gBIGlMU5KrtsmOmVJWJ1SOhUqmdA6q7rxjY6WAMK1OimR+8obBcQdyTFiwIOhJhCTyrh3/DMRSgF7HoaZVPbHuyRVLoBxAoM7zpo8tUMbZLfdc8e1wT6xQArSX5PrDkCmANAaFfl/hZdhpZHIgbQE5RJKvC5mW6XrFWs0BwRdoxY5BuWqv/6nQJtB7o8M7CMEqvzqQQLBAzppeb0FfBaoISVEdw6lMFspyojrKWQgzEhDKmZh7jCuBEhIoFxDsCNIFBDvSco99L0igpoBAxCL727BzkBwtnBFnLR0YBc5Cm2cAAsYniyhn5FkfDLLhk3klXyZK0iqQM+P+qIi0zkEjrUI5nRc4xg4gECmyEtBkBlFVvPTyS4xUjz3mWBy8/GBGkqTGonBHum9HHXkUI1tJljBv3rxJI6jYxFDFfN1TXQlkJeACglusyX0aai+BmgMCvG3oHnYOEJjasEYmB5E30emh2OPqdNpZx0a/38dAIZ/dkhwbR1I8BqgQVpm5IiYuBzuAUC+plmu/pN0rvBckUGtAoNwgpWo3lCtnSm9LsN3Z2VnuKSWPo/wLZNrMF65Z8mT3AFcCZUqgpoBAtR04Xwf2DlG5yTJHZOMwp7UJQVlHA9/nKH6QDMj8QI6N+fJFkFaBEi/1U7rqFMFC+QKwCwiUKTFbi+Gqq68qWovhhutvGKvFcMWVV7gahPJvi3vkFEggCwhkR6X88aVsqeUMiVLQ3nPXPXj40YcLFmUqp5/cY2gTJ09yij/P56tktz86nsCFakpQvy4gVCJB95xyJVBbQBAEKEI7BmK1AYTsJJ0ChQYpiaBAqU2dpxnSKlDa6mySlkJaBcrWSHkVUipf0lfBDiDQCzWbJYtAhWK4i3lk07FkgqCXGh07sbkmhnIfMfe4WkiA1jNFB3zhsi8wr28nGsEz1R959rln84ZBVnINesbo44CeJScbPZckA6e0HE6Oze3r3SOBmgICZVtMCx0YiDnvwT/xFjjx+M3yj4A3x2fyq8Wtpg06Cwr5vioy4ZI8c2qMJHkWAZGv2QEEp+fhAoLTEnX7syMB2nB37tzJ/GkKpSO201/2WA4c/AE/CzNzmyuB97oEag4IUXRiJDF1Yq4UFHjeQoc8AL4CB8VKZ0fbPiVhylZUzPc1QCYI0iqMpAVEKbVzzgRdQKhU8u557wYJOAkGE+Xhfpm/G1aIO4dqJVBTQKBUxYNaGyiWfSpbJZBAKZY75H5wKB4XWot5EChw5KtAuRW8lA5zNGV1zsWyBaMyWgVK7QzUIyCQZoTyyk9lo5d54eJhGbUxRWe4L/2pvCvutaZCAu6angopv3evwX3uqu9YHGfDM86GrLyUllRpRbz8tAI2ei9+qN1IB4k30C4fSLHs2EBsdpTd7CgRE2225LuQmz2IQGFvRMZwkq9LQFiyZAm+/e1vs8pgTttd833lUZGc888/n1XTyzXXZF+c9JVJJU6pRKr7MrW5GN3D60YCtI4nakyy/g1U0je7tvM5QpeaRKHntJK+Sl2r3L8XGpNTWqNC/RR6R9h9d2TD3sudLx2X7x7T7yvpy851ix3LXXD5TZbEa/ALSUicwooUOdV8Pj96k01IKE71aL+fckGh2a/CZ1KRFOcdFO2POnMGPaCUapNAIVvbgn6/Y0BmZoeJGgQqvPH0009DUzXs3LWz0suWdR7VbyDvccoPToVvKGXok08+yTbqq6++Gn+874/w+TOFn2rVDN2AYRr4/ve/j2XLljEZpVIpVgmPZEY10EmGP/jBD1glNLsPea3G7fbrSsCuBEgDtm/fPuaYmG0ExOQrQblXqHIfre9KNnUXEA7cjXoEhEruqd31Veh47rzLbmE7IqXsITjwCSl4eAUSr4JDdbAQCASxN9aAtP28Q07Nj/VTDiR0BhIQDIpgqL9Gi5Y2P/pHYU1dQwGkNG4SIFAK5VtuvoVVhFu/YX1NJ5JKpFi6zmfWPZMXECgHPn3Z1LJRPvFoNIrvfe97DBCoUdGRbLInijunJE8uINTyLrh9T4UECP67urpYDv1so/cBrXvSNobDYfa/lWwmLiC4gFASEHIP4DgLIqfDK6QgcypIw1AJLPhHAUGZZkDIzq0Q7pAWf7ZvEDCnwRZi8+3CcQJ6lHbo5mQNAiVDOvfccxGPxbF3716bPds7XDd0FntOoWaU23uiBmE6AIE82qnkLgPe0RznVE712muvrUqDQC9e+kfFeCo1m9DXHp3rlIrU3t1yj57pEigFCKQxIyB3AaH6O+2EprESs0AhE0Ml97R6KWR6GNMgFCQIzmLaBNIq2IWFcLgROyMB1AsgFJojRTC0y33gcIDOnRKw0/0YlohetR2WNV6DQJnVSHMwHY2StsyaNWuciaEeAIE2dSpxmhcQOEAQOfjbZcgBDtE9KnTFhGVm4CKb2Io29gsuuIBVALzxxhuxffv2cclp6MVNmptira2tDR/+8IfxwAMPgCoMkobDBYXpWKkz95qlAIHWa64vQr6ZFst7Yuf4QlKs9Zou1r/dTd3u8TRnp+Zn9z5kP3jsrF7Hxpo1MZRzcdIsSJwGj6DAy6cgcDozTRRqoXATuob80Op836V5kYMiXyNnzXJkW+4xcSOMES3EDs/1QaBFl2ufLLc/J46jTZQWZK4PQhYQ6G+kCqWve7KVko9AtlpZ9iufzs1mwrPzhT7RxDBRg1AIEEhj1LzEizlHB9m4tbQJX5OI4R0K9qyLQeRlfP7zn8fs2bMZLJDjJcHXDTfcgH/9139lql5KJEV/J5PPV77yFabiJRCgUqpkK6YXNqXYpblfcsklOPPMM1m9dbpHX/va11hkhdtcCZQrgXIBoVh/lWyK5Y7PyQ3UzjWzx9qdm92v8kJf95XM2+5YK5HHtABC7kAZLPAagkIcIqdBYJvreFgINrRhW1/1lRwrEZDdc7xiCgE+6Yjvhd1rl3u8BQ79ajs0U5wECE6lcS13LBOPo40vHyA0NzeztLCRSAQf+MAHWE1zMgMsWLCAORHS36jRBkwqfPpbuZBQKSDwIoeV/9gCKcRj91NRKHETHat86DzCj5dv6Uc6YrANnh5k+ir71re+hWeffRYPPfQQbr75ZqaReOutt/DBD36QaRe+8IUv4P3vfz+DCpJDd3c30zTcfvvtOPXUU1mUxfXXX8/mv3DhQnzzm990JDVwpffKPW/mScAFhOL3zO6m6wJCec9ASRNDOd0QLJAJIiAkIDBYIGu/BcvTht7ozAAEmifNg4cJr5CGj09C5ElDUp2jZjnyK/cY0xLRM2peoHNyNQh2F3y51yz3ONrUJwJCU1MTLrroIgYD9MVMmyZ9db/99tsMGAgO6B99+VMefNIiUDhiufRbFSB8rAUty2SYhgVlxMT+l5NoP9yPTXcOIjWcUXmRduDCCy/EaaedxjZ1csq89dZb8d///d8sve8ZZ5yB8847jwECaUfOOussBjqXXnopbrrpJrz00ktjkRQkg2uuuYZFXGzcuLFcsbrHuRJgEnABwQUEO49Cue/QUn06AgjjNQuZSAgfn0bMCEE15FJjqMu/Z2EhKMbh4dN5NSRTPXAyL8RGzQt07RcfuRGRnrfZ12tPTw9TYU9HI9U6RQxMBAQKvSLb+8qVK7Ft2zbmyEhqd9ISkGaBnBspyoC+uMmHgsIlH3zwwSkBhBUfbkLbIV4mroEtCnY9FcWKC5vxxu8GmAaBxvbpT38aK1aswP/8z/+wkE4qjnPLLbcwnwN6YdMcCHyuuuoq1g95lH/5y1/G888/jzvvvJMBD0HG2WefjY985CP49a9/jccff7zs+U3HvXSvWZ8ScAHBBQQ7K7NuAcHOJGbKsRlzisqgx8enUKvEUiUeAfSrbdBNaeywXEAguzcBwkEHHVSRJ7Pde6EqKlRNZZt7oSgGAgdSr+/YsYONixwZCRToH73wKIb7iCOOYPZ8ggnKrUD/yl3clWoQaK7eRgGLTm9Ay7IMJCQGdOx8YgSRLoU5KpLfAY1vw4YNY06IpMYkHwPyoyBTAm3+5OdA2hBqhx9+OPvb1q1bx/xByFRx/PHHM8Cg+1Pu3OzeD/f4d7cEXEBwAcHOCnfqPeO4BsHOJGbisRxnwsunERLj4As4adJG4tQNysrIhIA+pYNFL2TbRECgzYk2NHKYy42XroWcu3Z0sY2fSkGHQqG8YY606ZNWgECBwrAIEmhcZEYgnwmKDMhutgQP9OVNXv50DG3OZJIgzQRtuPnkWQ0gkEzIWdETFiH5eST6NGZucJsrgXqUQLmAYNcW7+Rc7b7zKg0FdGLMduVUbG52szI6Mf5Sfdi9F4VM1C4glJJ0wb9nEkv5yZwipCBymWQPLEROFJB2OHRDMz0YUFvHjSYfIFCVRWqksq9l27B+A3M4vOcP9zBVe6E8CAQPxxxzDPsKf+211xgskFmBTCIEB6S2p69w+romf4Q9e/YwJ0WCC0qCRLZ90jDUAhBqKR+3b1cCTkqgloBgdzOpZF75rlGofkqx/st1YK5kjNlznJKHkxBSzXxyz803NxpnISd3FxAckDyFeoqCzswPQTEJn4dHMu1k0ScOw1oT0sb41MX5AGHdunXsC5w22lq2QuWes6mWc/MgEJ3mhgllHxz63cT/tvNwVqtBqKV83L5dCTgpARcQMtJ0AaG6VeUCQnXyq/rsoMdAi2cYqupcAYqMeYGSI/ElNQj1CAhVC7VABy4g1Eqybr/1JgEXEFxAcGJNuoDghBSr6KMtZMJj9LEiQk411fRgcIJ5gfqeKRoEp+QwsR8XEGolWbffepOACwguIDixJl1AcEKKFfZB7oOzGxVYyqCDToocRvQGJPXJhY9cQBhfrKncTIoV3l73NFcC0yYBFxBcQHBi8bmA4IQUK+xD4IG54Ri0dNTBotE8+tR2GKYwaVSlAIEc/1555ZUKZzP5NK/Hi5PfdzILoyzlg0CRCuRoWMtGGoSBgYGxao62AYGjKqaZZpUIYKCIh3pq+YZbZ0N0TFyl7o1jF6rjjsoFhEJTsOswl3kmahvVUyiKwe5YaZz5fBOy/efrr5gvw1TM285Sq/V4aCxuFIOdO1LhsV7ZQod30DH/A54DGsJ+xLUghlMCkgoHwywe5pjrg/DOO+/gd3f+rsLZTD6NwievuvoqVl+gGCBQvQJyUqQcALVslIuAFjZlKKQkRXYAwdfCI7xQBs9xMHULg+8o0JOTX4icwCE8T4SvRWRhkW6bYgmYwNB2hWW7fC+3agGBZFfJxltLmRcaTyXhj/QusBMp4WRtBbsyqrf7UGhtsPtgp1iTXUG8144n/wOv2Q8qhexEoxvU2hSCyUks/4FuAoMJAUlVQErl8OLDN2J4NJMiJUqisMF6AARWPXHtwzX/AiEZE4QcfPByXPypT5cNCJwALDk3hFmrScPBwVQNDHWlsHd9ArFd5pg6gWo2tK2WseCkBnjCpMHJQwjlfGS5YFH542BZ2P3iCHY9liyp5an8IvV/pgsIxe+RCwjVreF80OICQnUyHXc27QFzmxQYaef8DwSBQ2NDA0A7Wk4zLQ5Jlcf9d92E/Xu2sVTL+QCB6gK8+OKLjs2Skh1R/YFSJoZrrvkSVnKvY/as9vybqmMjynTEN8xDy+EfKxsQeAFY+uEwZq3KMYFYwPDeFIa3qUyjQCzgCfFoX+mHJ5gpjpVtpHnV0joM3YChWTApXBPjI0ws0O8AQeIhihwkrwiOVEJusy2BPRtGsOORBMtw+V5tLiC4gFDLte8CQi2lSxsBD8wLx6GmRxzzP2CZ/mQPJFlmiSwmJrP4w29uwe5dhQGhllMuZmIgQDi5rRvNfX+GqQ5UNAxeboNlqrD0kZLnc51nIHjWT6sDhNGrZNSUmY2c/d8Je7qmmkgMpWBomd0qJ7FlwXFSl6LII9jsheSZ7EtSaoI1NgWXunxFf3fSHOMCwvQUa6q17ds1MZT3aNX6PrDXXJ4H1tUglHd/yjpKloBZ3gGomnP5D3IvTLZy2eNhKvVsBrJSgFDIeaesCRU4KAsp5QBCU/edMJWdti/HCY1ouuABGJFdiP7987DMZNE+uNkXInTuLx0BhGIX0hQD0b7keCiwAEs3wYnk8VhaQxBu9UP2lgcJBAZKkkN0WIKuirD48ZqMLL9wRDF0aRoL+3/2Gp9DQdmz7fRBl2ZjYCRjQBQ1hFo0eHyUCMveWPId7QKCCwilVpFrYigloeJ/dwGhOvmVPLs1ZMFn9jnmf1DognQjCRYIFO6/9w7s3b29oImBaiX8+U9/Ljn2cg+gqIRLP3spA5TaAQIHz+xz0fCR3wOGhuG7z4c2+My0AwLVaYjsT8DM2X7csx4vAAAgAElEQVQtzYQylEJ6WIMYEOBr80HwiHldFbITICtD46wg+BLmBoK7SL+ASHQuLIsqoo7faemnVn8YB3csQKMvCJ/XC0VT0RsZwpa+3RhREiVvq1eQsLR1Hha3z4ZHkmCYJobiUewY6MaekX6YJXT6As9jfkMHFrXOQqM/CJ7joegauvr3YfvADnj8u9DcoReVR8lBAnABoTxAqHXUUO69sutoV859ruaYQlEJZA4tNFY7X+bFnBqnUxa1vrbrpFjNqsw5d16zAiPlnP9BOcN69C+/R0/3roKAMF1RDFkTQ/kaBPoCztjweakNTR9+EGLnoexnZdN9GHnyClhGbPQLlb5Sx3/fToUGITGcRjquZbQHpgUtqkIdTsNULWiawcYmBySIYRlyowe8ON4nIfd+enwSQi2ZKpKFWnSQw+DQAlg4UL0zeywN4eDWebjq7E+gMRAe1wW9yLqH+nDdo7/Dvmhh8w7BwVfOugTL5y5iwJnbUkoav1/3CB5/5+WCjqZ0zjmrTsCHjzkdXnl8tIphmdi0axtuWPtrBBrfQailsBqBaR5yWj79hwsIpQGB/IMCgcm5UsbJtoCtyu4mUygkrpx3VrnHkEbAiVaoxoDdvum5KjSmSuRRKB+BnXFVEu1hp3861gUEuxLLczz5H8xvTEBJRmyrd6u5/LsDEARILSfBt/xjEDsPg9C0ALy/bQwYYBowEz0whrqg9byK1Fu/gz7yGu3SY6KrNSBYpoVIXxIGhZGQEj2mIbIjCkEcRRViARPQNR2RnjQ6DmlGeH6o4K2lL+/GWYFMNUnBj7nhJRhRBhBJD0A3VZgmsH9XIxS9LW8fftmD//roVWgJN7K/xxNJ7NnTg7lz2hEKZRwvX96xGTc8djc0c3JEDW3K/3LSuTht1bHs64pefDt37YdHFjFnTgf7XVJJ49/vuQn74oN5xzAv1IbvfOwLDA7oZTcwGMHwcBQL5s+CxyMzx82HXvo77nv1D5izcIA5aEqCB0G5CUlthAlOt3Qc0XkK2gJzAc5Cb3wfXt//FHRLQ8jTjIDcgJ5Yl6tBgAsIlb4nXUCoVHKZ87hzL7+FfY5xdoyO1V3zXXe2LAKd/gFoDtZfKEdIpQBBURRWCdGpRqRM5ZtpA3HKxMDxAYROvg6+NZ8k/UHxoZoG4s/9NxIv/weAAxtfrQHBNC0M740jWwpDipjgXo2j20gAlB9BAOIDaUR6UvAmOMw/bRZ8BwUhcAKOW/QBLG5fjs3dr+KV3U8zDwGSX1OnH7zAozO4ECfOPxsvdz+FwdR+xJRh6JqJfbtnwzDzJ5o6uGUuvv2xy5ndnzbnP97/OHbv3o9wKIhLLj4PkiQipSj42u+vR39q8v2XeRE/+OiVmN1MUSbAW1t24IUNb2Lb9t246opPoKO9hW3wD7z0BO5+6YlJ94S++S896R9w6qqj2VzSaQW3/erPMHQNy5cvxofOOIGds7OvG//vj9dj1sIuBlNLWw5HUGqAJHoRTQ9ib3QrTl/8UXSGFoDjBOwZ2YrHtt2J9sB8rOw4Ds/uuh8JdcQFBBcQKn6FuYBQsejGA0K2GxcU7As07DfRwDmX/6DcEZQChHL7qeQ4pwCBrs37FqLhjJ9BXnRqYUc/y0T6zbsQW/c1mGrvuCFPNSB4Ixaa31AxFEthWDTQr8QR71fgSQNBWUbjaW3wHBRgG/jB7Wtw3hGfwu+evxH7RnZkHjoAjZ0BiKKAY+Z8ELPDi+CXw1i79U4MJruhKBa6986Bafoh8gLOWHkMwr4ANu3dgc37u3BwcwYQqNHX/933rcXefb2svy9e9k+QZRlpVcHX7rwO/UoMKzoXYs2CZege7sdz294AOSX+58euQkdjM+vjyWdewoaXN8Lv97HNfcnieQw8nty0Abc98xcEvX6ct+YkDCdieGPPNnRHBvClD16Eow9ayc5PplK4/qe/Y7Cw6pCDcO5Zp7Df7x3sxbfu/TE6F+xggHD0nA9C5ESMqEN4e+Al8JyAUxZeiGZfO0ReQldkM9bvXYtj5pyJtJ7E6z1PMT8I18TgahAqeUfROS4gVCq5zHljGoTcblxIsCfUlqABWadNa2rVMKUAgVIRU/IkpxppELJ2TicBgbZM3jcf4TNuhGfxBycP17KQeuO3iD/3zUlwwBZxjaMYmAahOz52dz0REy1vKNBVAxzHo38kgZ7hFHRNg8cjInxqO6SFmdLclB/BI3igGOmx+AKy3zeRiYHn4BX9OGXRR9imvW3gdWyLvAldN9G9swWa2cw2XZ/kQcDjRVpXEUsl0eFvxLWfuBoeiZwXgUf++iw2vbUNq1cdjNNPPZblqSAY+M59tyCmpdj5kiDAI3owEI+A/CO/ff7nsHT2Anb+/t5+3HHng2hoCOJTF52LgN8HTdfx44fuwGvd25nzod/jQcgTYOdrho4TFq3C5R/4GERBgKbpDFL6+4dw+vuPxWGHLmP9bty9FT985GbMWbgHggCsaDsWncF5EDgRSS2OTf0v4sR556DR3wqJ96BreDPTGtDf6Vif6MX67sewe33EzYOQTKKrq4uVcs82ymhKGUQlSYLrg5D/LecCQnVv/7yAkO2yXkCBbLVhn4nEaKrheosLb/Im4AWpcusLELZt3Ya77rqruhWSczalWr7iyitKplq276TIWB++5Zch/KEfTxqvZegYefBfoOy8O+9cag0IdNHYYBpKSmPXF9MWmrbpkIYAQ9UxHEujdzgGgwOkNg+CJzRBaM5s3vmaKGR8ELJN4mXIoh+KnmQ+CLSMhvo8LIIhn9mFAONjR56Oc488hcEARR8oaYXZ/umFmFZV3PHU/Xhq22sFgx7JyfGacz6JsD/ItAVpRR2NjpHZz692bcGNf7sbaSMz54nNL3rwpQ9dhJXzljCIIUigzYuiayhCYzAWYYDRl34B7XMzm5rAU7pqHtZodAT9b5OvgwEINd3UEEkNwILJtAuyQFCUcDUIZZoYKIrBjmd+pS8Gu06NlVynWK2EfP0Vy6lg5/hCYy0WMl7ISbHW92Iq7gN3wRW3UBh30TbdoEAO4Us7FBZmndJ4xBQe0RS9GMkGW8nyc/YckdfhFxLw8goEjl6GUzOoUhqEmRPFQPugB+ETfwzfEZeO3pwDCYvYBv34N5DceB2Ls5/YpgIQJuZAEDXANwB4dqcR601jv5KEf0UI8iIfeH+RUEcLaGjzscyKxZqmWujf34g0K/M92TfDI4h435I1+NDhJyHsDYzlQdgf6ceDLz+D1/ZtzeugmL0mQcaKjoU4e82JWNI5f3STtpBSFTy75VU8uvF5RJXi+ScaPQGcs/pEHLdsNbxSJpKBTAJb9u3Aw689g92R19E2ZwiiVF0yBNfEUJ6JIRQKMUBwamMq1FclG5MTXvuFnhcW+s3n918i0KjltWlMxa7txE5T6/tAYywIWF/+9g1WQhXYphtL8xTBVbBNFygEvCYWNmvgRgdAUGBYHFJqZszRdH3AAseZkHmVgYKHT0PgaDOrHSyUAoTt27fj3j/c68QaZX3QC+iyyy+rSR4ETgig6YJHIM09BmZyEKlNd0OQQ/AsOw+crxGp13+D2NNX502aNBWAQLcxMaIgHVPHEiXRciRtgtmdhtYsgG+QwPT3BT9DAG9AYhkVy2maCowMepFMNsCwSOMwORdCQPRA4Him6tdNE6qhI22oZa066k3iRfgkGSKXefYp6iGlKTDK6gEQOA5+0QuR55kGQrcMKPowRM8QmlqSED3VwQHJyQUEFxCKPS8uIJTzNskcUwgeCwLC1797PdvBLJPD2/0eUEh30ZtRu/2u4GUb/RpmhVVQeNjE1GwEC6w2gcZjmBUyylQ8nG7NAs+Z8AgKvHwKHl6hkkDl38UyjywFCETPVOHQqUaLKFuh0VkfBMJwL0LH/RfhOFJv3g49ugkcJ0JsOQr+VZ+GNvAWkhtvAKzJmSqnBBBGH65kRDmQD2FUsAQKJVMuW4AvIMHf5LFVVY/BsAZQgAwV7KrnRi8fekRJmSBKZSWWLGs6LiC4gOACQp5KsxWkKa0YEChRzZYeuSQgZG/UVGoTGqUR+MUEZElidQnIOSef8wl7mZoZWIgkBaQ0DroxvbBAWg8eBAsqfHwSEq8WhAWy3ZJDXLmtFCCU208lxzkOCPR9zJMNVQes9Pgh8X4K6INl5ne4nCpAyCA4QOaGdFyFmtZZASH2nE7cu1naY5oTpcgW4AnIkH3lpViu5H68m89xAcEFBBcQpgkQrvnGtZYkSpAkDzb3ytCokl2ZbSoggV6+TdIQPPyBzYFUmeS5WxIWLA4JhcdISkBa46DVBSwYkAUVfj41DhYIDmSRHMzKLxX9rgEEToYYPAicpwVGch/E8FJo/S/AMqLM/i61nQwzvgdGKhMmOLFVBAgXhDHr0Px5Bspc/qD0yyUbR0qR+v7yLzmHaT5g9/oRdD3qVnMsFcXg+iBMXqiuD8J4mdjWIFz2pW9b5GQRDjdi14gP8Qqi4moJCvQF3iIPQuLyF0FisCDLDBiKaRbIDEF+FgMxkcHCdLesZsEnpODl0wh5ST1rIZnO7zWeb7zvFkAQG49C6OTvQZy1GlYqAs4bQuKFG2AMbALnb4X/8M9D63kFWvd66AOvQY++OU4cdgGBoLN9jRdzjgkwnwFSiwsewBfOH3mQjuvQErlVGKZ79byHrm9Z2P10HANvkY3lPTTvCVMtVe6ZwhxrAQgTbdOVOkA66SiYz17+bnZSLLTqK7kXFQECCbyxoQm7R3yIVgAI2QnUAhRoI22V+yFypTfOUrBAJoh9IxIiifpS9dIc5zSZELRBqFrpeWblnQ8Qnn32WWiaht27d9f0bfr8889j08ZNWPvXtSy74pw5c/Dkk09i6dKlsBvmSKYF3/LPIHjKd2ApUViGiqHfnQzKsijOOhENZ/4YZrwHI2uvhjH8Okx9fI0Bu4BAgqHIOp5VYMx84c861oOFJzVmfpfT4v0q3nlwBIme8jU7NRX8e61z8jHSyDP/vTbx8fMtBQjkG1SqFoPd6IPp9M4vWF2wgN3dbvRGJZtroRWYb6zF+nfqPtidc7EnKF9YKav1QBoEpwChFqBAzn7tnl7bTn4EC6IksaxypF2gxU5ahJ2DEpJKiZS+U/wuoi/YJe064iN9tkKUJgJCPBbHz3/+c/T29uKll1+q6SzoWrFoDE8/+3SVgCDAu/gTCJ76H+B9rczXgJqy7a9IvPgjhM68HmKYMvuZULueRPzZb04yNVQCCBOFQ2Aw5yQfOlb5wY06AyoJA11/iyK214WDmi4mt/OSEqgnQHBqYyoWvjeTAKHkzZtwgFOAQN3azRdRaKxTCgjsC80h4ud5A+0yAULlHRIsCKIISfJi50gIBmW0qaPmkTgsaoojGrVX7GkiIFDdhW98/RsYGBjAxo0bazpDio6gLI2vvf4aWltbK9cgcDL8B38O/mP/DzhPA3gpACOxH3rfFkBLgpN8kGYdASPWDSM5AHX7WiS33AxYBzQtTgACW7OkTZAop2GmUT0C+np1myuB6ZaACwiZWP1Cm6tdaHFSg2B3bcwUQGDvxFpoEHIFVi0okI2+URp2JJ+AZskYVFvrLlysrcGC3xqwHZI4ERB6enrsrlVHju/s7KwcECjDnm8RvCs/y6o4crwAy1Cgdj0BZe9fAM5E4Mh/h7ZvHdT9a/OOt1JAyJoYHBHCNHViGRTdMU0Xdy87ZRJwAcEFhHyLzSkNAmVBjUaj4zTYpHWvOSBkJ1UpKPjFFBrEIUcexLTpQ0RrqitAIPPC0k4T8eEe9sVqp+UCAi2U3Dztdvqp9lhyDqXFVKkPQiZGME+c4JjWiExCJJv88rELCKQpaDnEg3knBMEXT2hYrWhqfv7IPgU7/5qAnra3dmo+MPcCjkrABQQXEGoJCOl0Ghs2bBhnsiDT/BggNIQbsSfqr8pJsZwnwi4ohMUoAmKsnK5LHpM0ghjRGkoeN5UHSCKHxS0JxKLDth2xsoBw3HHHOVa1rNK5U1XBF154oSInxUqvOQafNos1UXnmZR8OY9aq/GGOTF3JvsrHp3seN846CV/UFROv3NaPZH+JDGfVCtk9f1olUC4g2FVfF5tUsRoDTqjonfRBcOpLelpvcoGLF7oPdLhT884HCPThxwCBLhQKhdEdD9UcEOhadiChSRqGVyieE77cmzqiNyOpZ6rs1UtrDQFBbgAKpcqz2QgQdu/cWjAXuM3uqj6cFuvKlSttRzFUe2G7GgReAJbmAQTTMJEYUmDoJgyWsKowIDB/BZ6Hv8kL2TN9Tq+GYuJlFxCqXUJ1f34pQMiGORaaCG3GBPETWzG7frGNKd91CuUcqEfhMvV5BZkIq51LtuhTPsAqJG+796FYYalC4yefsvXr148DjmkDhOwgmVK5WO2HEjkQ7NwsCxyG1BaoZqaoTL20g9otqIle6Hke3lJj7OvejUQyMXaYZkqIG0HQXKerzW3z47xTD8HJbd1o6r4TprKz5kNxAhCUhIbEsAK72Q5YPQZZQLjdPzELeM3nTRdwAWFKxDztF3EBwdlb4FQZ6EpGRaDmAoINyRXSKNjJgVDqcoYlol9tryv/A4EHDmpVEI8N2gpvLDTXhBFEdJpNKC0BDScd4sFJrfvg2/lbmOreUrem6r8Lc/4BrR++nTl5vvHGG6w/+jogG9rq1atx7bXX4rHHHhv7YpioQVCTOkYGk+O/KAwTelIH5xEgSMJkF4kJo5YkAQ3t/pLHVT3ZCR24gOC0ROuzPxcQnL0vLiCMl2dZGoT9iYyJwaavnGN3biIoUA6ENrkPPKuKWF1TTS+GtOa6AoTGANDqGUYiWb0JJaMhaYVq5s8GWJ30yj+bAcIKGfKu+/HGK8/AoEpDNW6LDzsDl37nrooAgdIlD3XHDlQWonoeSQ3pQQVqXGUbvrfZC2+LFxzVHS/SQs1eePxSjWc7vnsXEKZU3NN2MRcQnBW9Cwi2ASEEi/MiQSWUFR6JaayKmAWFTJKknqpyIGTFkDQCGNEanV1lVfa2sM2CmeyDZlSfiKdeQjgJEP7xtIV4/LFHYOjVz6scER+0ZCk+d9kVFQECFV2KR0b9P0wLqd4k1KjK/GQyfgiZxokc5BYv/C2FfVgo30bT7MCYJkLgRZiWCZ8YhGnpMCxz7G+WaUIzFfCcwAxChnUAgkVehm4eqMLJc2QvFWCYGdiic0ReggUTpsrhhVv2INE3NbIu5364xzgvARcQnJWpCwg2ASEYDMIjezLBZBYHqkNDGQcJFugfVUm0UWiw6rtJL2gql9wkDToCCDG9AXG9uuI8VU8qpwMyLyxtVxEdGXDEvBDRm5DS/U4OsaK+CBA+e+EalkRpqhrloD/ssMNsA0LnyiAi+xMwzNFEApqFkVeHoQsGeA8lZaF1b7LKjSPdKbQsCKH9yLaM+YKXIAoS2/RVPVN9ktZsY2cAgsTDKwZw5OzTsHN4M+Y2LMX+2E6s7DgOrf5OFtK5O/I21u1+ACvbjkPaTCOS3I+hdD9afJ1YM+sUbBt6A5FUH4bTfVjVfjzaA/PwUvfjiClDmBVcxPoeSvciwDfi5h/cgZ1v73VkHU3VPXOvY08C5QACvcOLJRJynRQPyHwmOSkWcyTNt4ocdVK8+Iv/bcm8ioagBJ93sgMfmRsoRTEVOIopApIqz8ooTwUsBIQkGsSIA0mSOAxrLUgb9eOg6PdwmBMYRjzHydDeK+PA0ZbFY0Brg25Of1A/AcKpa8K4/c/r4PdPDbAcunwx/v3/XloRIAzujgJCxqlT0ICm9SnsicQQb7ZgCBai/Skku9MIWhJmHd6C4FFNFL6AYxechnOOuBib976Mu9b/lIpRsz7CLT54/DKWNq/B4bNPQVKLoye2E13Db+H4eWdifsMyaKaKHUMbsaH7cZy66B8h8AI0Q8GW/pcQTQ/hA0suwt7odgwm92NT/wtY0rSaQUZaj2PPyHaIvIDj558FzdDgF8P4/a334bFHH3cs5KnSdeieVzsJlAKEbC0G2kwKFUayW6in0GyKQYhdCTgRLsngvEiNhnxjsrvpUh92x1pM3k4UryoWhWF3rIqi5I9iOP/yWyxyBmzwJNDkVSFLEoup5yiDT56WhYU4M0PwSOsc0y7Uwm8hKCbQII5kACHz/ytqFngMqPWxgWYnMKfZgqD0QqsgemGiEFKmHxG1qSLZOH0SAcIJK7zY5T0KQ0I7tApJcnTPZpqsUm15K4cr3tdYGSDsibKKjtREDWhbryAdUxE3TfSk4ogMpyFpgE8W4V/dAP+RjSxawScFcPqKC/H0Ow+xTT3bwq1+yF4By1uPRkhuQNjbilf3P8lMDcfNOxOzQ4sYIOyKbMGGfY/h6NkfgCR48FbfeihGGnMaFmNO6CDsjW5Fg6cFWwZewYrWo5A2EuiPd6MvuRedgfk4au5pGEr1Q+Y8+O2P/oI3X91s+wVWSq7u3+tHAuUCQqGNrFSaYjszdTI80O5GVgm02IkYKCYHu2MtBAF2YcbunO3cy+yxRQGBDgqJUQTF2Fi+a1mUIMoygwWBYCEPoREUEBzEVR4jKYIFHprhHCy0yEPw8uNV1ZWAiGbKGNTqJ8UyiXL5LAMjQz0VQ0/uIojozUjVSX4HAoQTV3ixJ3A0frPVh66UPQdTiQNOme3FyYv8bN9etzOFJ/elkS4CGh9ZJOE3n5ptGxBmrQxipC8JTcuMkTQIretTkFWefY1HUyp29Y9AUQ2IIofwUc3wHhbGaC2n0eyPOX4KFtA0i0wMImYHF6HJ34GkGkVXZDPIr+CEeWczp0fTMhBND6MrsgmdgYUMNt7q3wDVSDF/hXkNy9CX2INmXwf2x3diVmAhIuoADmo6DEOpHgwmuhGUm5Ay4ljScDh+/Z9/Qc/O/kreC+45M0QCLiAUv1F2azTYzS1QCLzsAkW9glrZgDBxwjQhSpggSQeqIha6GQQLZH6IpnkkFAGqUbkpgjbRVmkAMp8ngZBNbYJi+jBcRymWZZHDgsYo4vFo1a8nw5LQz+pLTF+yntxJVAMIBAefWB7CDR+dhbAvM5942sTX7+/Fz1+PQikACRUDwqog1LSOWH+KbfrkQxDutyB1aeCiOpKqgb19EUDmIc/3wremAXyosBlHFHg0dJKTYv7bWkj9W80icKMYqpHezDnXBQQXEPLtzU6t4IoBIXcAWfohZ0Yqo8wcPQqZIkxydOSYZiGSEqDqGVgoQ2PMLklmjza5HxJXOEyuXG1CXA8jpoeckmXV/cxqAiS9D5pWfQhgPeQ+cAoQjmiW8bcrFqApIIyTcTRl4vyf78ZT+zPOgBNbNYBAa2h4X3xcgiRB5RDcq8PamUK3moR3TSPENmnMVyHfGKifpg4/S5o0lc0FhKmU9vRdywUEFxDqHhAmwgL9TNoFeRQYCqt5yBTBI6lyGEwKSGs89BIV6ATOQqvcD7EIIGTHUwwUKD/AsNYMxfBO39Odc2X6ulwx20J0aD+McgmnwMhpboMq2fmn3zkxO8RqNAj/uNiPez47f9IXOInpyru78bPX82tcqgEEGreuGxjZn4CV8+nPQm0VAxblPhCLZ6YkW2OoyQdvcGpzINDYXUCoi8e65oNwAcEFhBkFCPkGS/4KGViQWIhYcVMEj0iSR1wVGCxM3CsFzkCHp9dWiGO+/ZZU70MapVie3gRCWXlJErCoMYFYjKIzqmumJaKvzrJDVgMI5y304U+fmw9h1GkwKx2qcvnZO7tx+6b8RbuqBQS20eomIj2JjDOsjUzVBBLBVj88vqnVHGRl4wJCdc/QTDm7FCBQLQYKcyzWChX2sWuPt+usV2xMdh35CvXl5JjyXcNpx8zpcpwsJD9HTAx2HiZadF6PB6KUcXQsDAuAZvCIpgVEUhw0kxzEAIE30CHbA4R84zMtAb0KpViuDxt9cxAIc31QHDAvUOnqlDE1oYTl3vtqAGGRX8Ajl83Hwe3jw1F3DKg47+d7sDma3yTjBCCw+VmApphQ0yqUpE7ehOAmwAodRutT8gjwhmSIMg8+zzHlyqva41xAqFaCM+P8cgCB8oEU20AL5UGwmzSoUBXGSiRZCBAqgZZaQkIlYZGF5FGoFgNp4+02p6o5TjkgZCeaFWxWu0D58QuXEQVUI2OKSKVUeLnREEe7Uss5Pu1AiuVSRaXKHR5psJd1mkhEeqo3L1g8+rU2GHVkXiA5VAMIFNp4QpuMWy+agwXNGY3P3oiKL96zH3/vTkMr4MDiGCDk3sgS/jJsTdjQNJS7Ruwep6VMvPKLfqQG7EWL2L3O5OM5mJycN7qp+r7dHiZKIJGMY9f2rdD1A5AsiQKWLVvGao5UU83RBYTS680FhNEwx9Kiqu4IggNakLSoM7CQX7tg6ipGYvGqY7sTlGJZb5jWGgzZ1NGSCBzUkkZsZHBMiCVcMQoKO236MVwnuQ9yB1kJIBAYHNEs4YoTW7C8w4PndyTQNaCxL/MFzRKOXeQDaRFueX4YL/Qp0CeAghOAEN2vYHi3Aku3IHl5tK3wQ/ZPNhtYhoXBrhSS/TqojsN0t3ivgaG3FJgThVLjgREcGAJpeuqAkmo813roPp0gQNg8DhBEQcDBy5a6gDCaxMjVIFS+UqdNg1BsyERllEVOlEbDKEWRvW7IWczQUojGkmVHPRS6DjkoJo3C+fMrF6n9M8NeoN03ZD8N8YR9iH4kv4p6cbysFhBO6PTizk/OxvxmmeU+IJ8UzcgUrRYFQOQzETDdEQ2X3rUff909vrhVtYBAvivb/jaM7hfSzMxA1R5bVspYdFoDvKEDkEDlErpfi6N7fQKpgemHA5I7eylOw1BMXobB14fjb74nkZycyZeFoqEqaXSWaWSyyFYK8ZVct9A5LiAUl6aTZo98V3I1CFOkQSh0m+kGZLULsiTDMg0kUhTWVtkDzl6ezMu/FUodOCiSeWFukwlO6YVhVPfKodLVfWobzDL8Kpwyj5T7sqtEg1zuwVEAACAASURBVHD56jBu+vjsgvkDstemvfDbD/bie88NjxuOE4Cw5cEh9L58IIySEziE5ooIzZLGPpK1hImhrSr0VHX3r1xZ1vNx9QwIfhHwewVYmgpBlgv6PxWTr0mFxkwTKiciphgwzenRlBAwSwKPdDKGbW9vhqodKOI1XRoEp+zeY4A74UZk9wI769/JMbmAkJEA+URwlGqZfshmUrRzU2p1LFXFGzFboekWZD4NmVMh8TrssjxtoOTlb1jT42GeKx960A/uUBGNVJ/xLm6EMKKFHRN/0VefTT6rBBA+cXAQt140G5RAqlij9fDVv/TixlfJN+VAqwUgZHvPda5l9RZsysOxm1RnHU0EBPZSZ1BulV2nhe42feVT1cysWLPypr9R9Eom8jSzLsZ+l+ezgd4ZHCxIgoWwj6KoAEvXwIkSy4qZ9XvSDQN0bDEnOLbZ0LXpmgKFZVNWTZONMTMcjpXvoDDlbOQUabmo6TnJvDKar4w86K90Xfo5dwnRMdl+svIYvQQ7zyOSfIBEIoaudzImBuqDvcBzTAxUiyFbrCmfQ3ixL2w7DoFOf6nPlCiGzD2xB4m1vA9ZuHLKrFLSxBAQ4wizugfT3yhEclBrR0rPbOykJhQ5HR5ehZeAgSeKpge4+NtatyT0KW3syOluVL1xQXgESjpe9VB61Y66KMzE7s2EW1AJIDRKPD600I+WCQmSJgoqkjKwtiuJQXX8F3wtAaHqm/Uu7SAXEOgL10MpICwgrVlskxTYJpwpHJQtmy3QrjrKWPQ72hxlkUdaM8agwitSeDRtfhwSigl6biTafDmCCaowazGzE718VZ02/gxgyALPzFN+mWPnZhtdP5lKwyNL7Isorahso6ZQbJPAxDKZTxQbp5EBCUWlmjRiJhEcK34EDCV0Zvqia/hkngGCagAKi9EGm4dXRgYk6GeBg0eiiCwL2qjJzC/RXM0xB2Waf8DDsz40PcOe9DO970h+dG5az0CSpSawceMmBghsk84DCIHAgVLj07HsnNqsnB67E4WRKhmTXaCo5BqFzrF7L1RVLVysiS7iE5JolMarbp0csK2+OCqu1A7FmPzln3l4TEhcFhY0CBxpFybDAhUxIke+evjok/hMZkgO1WVPJPNCb53lPsi9t63+4rUYSEkQEjkkDEAtUciJ+SCQT8LoDfQJHKvJMPG0agGBFsi2JyPoXpfxbWBm/SJBARyVJqmPqFlYtD9Ng8UjFxDoK9dDebItDopuQTNMeCWeaYRo844rGUT3SvSVn/mKTmkm28gDMg/dsNh5BBZZhUFIFpBQTZbh0idlhE1+KVnfFNI8SGIGQBTNGr1eZqPOjTqlvycSKQYYXo/MNl1qkiQilVJYGCvVmiE4EEUBAqnz0wrr1+fzZSAHQDShI21ktABBD89ghQqRpdQMANEYSQ4xxWQ/03EEEppuZkwEmsl+TqpmZsMnjQLJRCYQyITO0vMQIkBgehgaF5BQLFDl13Qyjo1vbmQmBjqX1uhEDYILCPl3GRcQSu++MwwQBAxoHVD00l/+PGfCwyvw8gpEXoPEYCHzxozWWYplkdfh51NsvBKv2TaZ0JwieiMSeqD0HZ+mI/IBwpKgiMWNpPblsKRFxD8d2YifPDWE7REVHQERj+1OTgphpDu/Iizi7IODuHtjjL08/+/xTbj7zRh6EgYCIoedCZ2dVzUgAEhGNcT3KexFbWgW9j2XRLLfmGRSkEMc2g/zIjRHqkkFU7u3LTWgY++6FAx1ajE4FxBos6YNkjbBrIqdfkcbJm38WQ0CfTF7xMwXMx2X1SDQz8ycYAESbfAAZIljdThI/U7Hsc2VNl/6mb7OxczGStekmVO/tGY8EsFCjmPpqAaBNl1K4kZVNU3DZBqErDaBNAW6rjNnadp0FUWFYZrweb0MGHI1CHR/6FqyBFAhVro+fe0TEKV1k/2NwIYybtO5hkGwAPY3nyQwQKFwdwILBjmkDUFGG0KmBL+HZ7u/Oar1pONJVqRB2Lx5EwxXg2D3ESlY/tp2RzZPcDUINgVW7uGC5EV3oqVkOuaJ/THtAkx4hTR8fApRPQTFHJ90p9wx1PK4zDgNeAWFjZPAhi/DV9oEjz6lA0YZzom1HH+xvvMBwsXLgnjf0gBTFdP/plQTX/zjfhwzz4sj5vjw+b/0IDn69UiRg36BwylzvfjeOR1Y+1YcNz43jIsODeH/nNqCwZjOKiv2RQ186q5uRA0T5y2U8MuLZ9mv5riqQOY5C4jsSeOdh0aQGjjweS7IwJzj/Zh/QhhCCX+JqZK/rph45ef9SE5xHoRxgMCM9RltQbYx7Q/PZTa30V/SRkotm2Kc2eVHTQT0+6x9P/tZkLW109+y9vvsf2e+og9cL9s3RS80BjPRUNmWPS77wqafcwtnFS6iRVEQQFql6ps5fhLMdyLjcUFzJtMJ0wKMwky2f/YzQYKZ2fypL54j4CAtmDVmgiFAoJY9j/6bTBTMDDNqTonFYtixdTOr35Kdj6tBKO8pczUIpeU0ozQIsieEndFwVV9otAlbdnLmlpZhTY6gcfKw4BHSTLtAvhaUZjqfN5xiejGgttRkHE51WsjEQK/A5SER9/7zPNzw1CBufSOKrxzbiMPn+PClB3pxzhI/yLVgS7+Kb32gDcs7M0l4jryxC1SNeXlYwPfOaoeiAXObJdz49CB2RjR89dQWdIYsrJolOwcI7G0NJAY1xHvVsVsh+jk0zfOCH1V5OyWzavqZrkyK9RzF4BGBkJfK1JfWQBaTPfEHfdnH0gYrPDddjeAolYxj59aMD0K2uYBQ3h1xAaG0nGYUIBhCGL2JUF34DpQWrbNH8JwFiVfHTBG5sDCotSBdJ0WnCs06HyDQq/WQBhH/eXYH+9K69E/dGFQtfPW4RrzvoCBe7Erin45qwBfu2Y9dIxrmBgUsbJTxbx9sxTE370J6NCHRtae1ojMo4od/H8A7cR0Sx2GOl8cp8yX85GMdzgKCs7e1Zr25gJBftBlfpYxTYSWN+aFY5P9SYQeVXLTIOaXyIFAUQ7FUy8VBKL95yq6KnGlG6AGf0AqFLTodEZFvjk7mL3D4lk7qrpBjoVP3gS6YL2sm8+NRlJnjpGjI7eiNSu9JQMhdNQwWOBV+Ic3KXvdrLXWvFckHCIt9Au64eA5e2J7ED9cNoW80CuGKNQ344vua8dyOJH709CA2R3U2fXolnz/fhy+f0YoP/GovlFHV9SeWhXD+oUFceX8vBsk1fLQ54YNQ64e/Vv27gFArydZXv6UAoVSq5WKzcaqIE/WTr69CtXgKAQV7B9gMKSw0PzshnNN9xwsBk905ZCJyJntZUz+F+kqlUjMHEBShDZGUbNsHYbpvcC2vzzyfp9YPraLpFNIgBAQOSYOcrw60TOx6xnY7cWpeDmgSOezPKcDg5zk0Shz2q5lQMhcQpq/c86Q8COR3b2bCjwnxLE6CVSDUg7MMcBbB4AxY0BU9Bc6flEoksHMH1WLIQDQ1O7UYXEBw/p443aMLCGVIlAgnHG5gyY1irMIjeT3zLiyUIbt6OKRUmGMtxuhqEPozERdT2CYBgqVDNFJjmz5zwxW8sLjxocoEB5njpiE2cwrl4/Slqq3m6AKC03fE+f5cQChDpqRaamxoBMe8hDNfzYbJsSqPI2ke0RTBQiY3v9vqTwIzARAojfJBZwUxa02w4lz9dSF5i4OaMvDa7QNID03thlsKEDLy4fMCggsH9lePCwj2ZcZW4Og+UtnZU3uWCwhlyJsAoaGhkcUWU9Gm3JZ1HCJYSGk8YmmKOeZBPmwzQf1exvRn/CEzARBIyFKAg7dJLFn/od5viK6aSPUZU77+ywOEepfezBmfCwiV3auZBAhO+YIU8kFgxRGF/GUHZpQPQm7RJlGSMjHHeZxWmJexyUHReEQVHjGFsrK52oXKHiVnzpopgODMbN+7vbiAMLX3vhQglKrFkNHG5le72k3LW2jmxfop5HRo59rFHBeLRQDYcXi0M55SK6AQnNT6PhS714VkUTKKgeobNEgRFoNvtyhSKUFV8/cs9RD5UJVHVmGKYCGvdoFDWueQUnkkNB5xhWemCFe7UM0dsHcuAcIJK7zYYq7Ab5/ZgmFKXFDjds4hnfjdVz9YdpgjDcfTICC8YOZrECaKVk+biGzXYWbzU9dI9oUBIXvBUjbA+ggfrJF4HO82mUygq6trnJMivQuXLVsGSZJAgECplrP1I/INwG7FQyc3S6cEUgw08o23Eg2CE/MuVpHSbninE+MpJf+SeRCoA4odpnA6isOnCooEDRxHST9LPeylLu/c3+mG04OR+Sex1Kj0qslnjlB1HkmNY2aIpMpDMzKFVwoSsHPDfM/2RIDw/tUh/PCXD6C3f5Blla91O+WYNbjzph+UDQjkN7f4QyHMOYJ8EN5dG5WuGNh47xBGdtQWzPIlSiIHxGzjTQ28RWOYfP9NTgKd77byJZBKxLFrx5bxUQwC7wLCqAidst9Td05syO9KQMhdrgQLrHwqr0HmFAYLmfoBLMlp+Su7hkdmtQsEC6Rd4AWBpWTNp10wLY75LSQUDkmN8sZncqzb1S6Umnmpv9dQHHXRNQHCZy9cg0QiMWXjCYfDWL16ddmAwAvA0g+HMStPqmVDt6AkVVjMCzabBHf8VDLQw0H2ihBZ9b36gQzSHGz8wwCG3p56QJgoJc7QIFrKuF8THBgCpT+vH5lN2UKt4kKl8iC4GgTKnDv57etqEMpbdGVpEIp1lclMprNUwFRymQoPiVwWGMobRC2PymbMmqhdyO+7QDniqVIa+S0ISGtcSe2CU2MvBRCl/u7UOGrVDwHClRcdC3/AN1a3vlbXyvYryzLmzZlXFSBQUZzkiAolcSC1MrsXefax3BLXlHY52OSF5Mnv/FPruU/sv34AgX2LgZtQajKTG8GFA7vrwgWEjMRcE4PdlVPe8VUDwsTLEDAQIHh4FR4+zeAhkxa4PlqudoFsdIIgltQuxEi7oApIq/X9AisFEaX+Xss7RIDwpUtOwn/+4lvY39Ndy0uN9b3mkKNw7Vd/XDEgmIaFkZ4Eq7Q3llmXhEjhMbSflcrXawGhVh88PnFK5lvsIvUFCNMujnfNAFxAcAGhlovZcUDIHWzWHNEkDTJTRD02AgYCBfpHvguFnHkoCmLXkMy0Cu/mVgoiSv29kGwIEK6+5ER85b+ugG+eAYkq59hsHEfldD3sO1PVFFait1hbueBIfOMT/1URIJBaMtqfAtnus3BgUTniuIb0sALBI8DT5IHgFUt++DZ1BiCImfwd09VcQJguydf2uuUAQjCY8anJ95Vt1zGu0tnYsd87aZqzGyLoRFRFKRnlM2/U432geRAgbNiwYVyqbBYQcP7lt1S6F0yST7M0AI8w3uZYSojT8fesA4kkyawuPM8LYwk1KCnTtn6ZhUu6rbAECnmi5AJCcDEge8tTvZO1XxRldDbOxuFLjsfph58LAoUn33gEL72zDj1De6EZSl474yHzjsBXP3ZtRYCgKTpG+imzX6YZSR3qcBpaUoehZvILCF4B3iYvxJAEQS48H9kjINzqHwMJmhP5K9A8qKOxssKU42MUetiLavQJzC0ozBxvc3x9sn1lxznx56y/BAHCm8wHobagXs/VHN+Nz20pQKBaDBTFMBWtkF2fNmk7gFAs4qLQPPLVGKBj7RY6KpQPoBL52Y0OqeQa+c4pBoN2xkT9UBnxF198sXaAQK/CNk8fMzXMtEYCYo6OsgyOl7F9wO9maqzwJjbnaBDKBQRZ9OCwxcfgvGM/jvkdB0HRUtiy63XopoFDFqyB3xPAnv6deHjDvXh163NIawc2dBpmxYCwMojYUApKKrNmSXMQfWcEpmGCsi2yvdu0oOsGkiMa/G0+tCxvGvtCy7owZjdy8k1omh0EL3AQeBGzg4sxlO7FQU2HIqnF0B6Yi0hqAEFPI7oimxBThrG46VAYlgZFT6MvsRspLY6A3IBm3ywMprqRVKNo8LYiIDWgJ7ETppkx481rOBhRZRAj6QEGJLODSxCQQixJ4esP7sbLT24e5/Fe4e0seJoLCE5LtHh/LiCMAnyeIkQuIIxfO8WKYBUCjSkChN668kOo5BFOmwFE1MY6idOoZAbTe04lgHDUspNxzYXfwb6Bnbj32V9j085XkUzH2UR83gCWzzsUHznpEizqXIbbHvkRnnjtwXGTrBQQOlcGMbA7ymCAGqcCwvooepUk0CKw36fjGiI9SZjDBuauakHD0c3gOR6zw4uxpH0lhhP9eGP/82PjaWjzQfZKOKTtOBw370PYPfIOBhM9eHvwFRw5+zT4pAD8YgCDyf3oje/BSQv+AR7Rx0KMH99+H5JaFIe0H4PO0Hy8sPtR7BzZglMW/APag/OhGik8sf0+pI0EPrrqKuwafgtbB19FX2IfDu04AXMblkLV0ti+vgd/+O2fMDg4WLPFkIlG8NWsf7fj8RJwAcEFhInPxAzUIMx8QIhoTUgZfvf9VKEEKgGE9x12Jq487xvojXTjoRfuwXObn0A8PcJGEPCGcfSyk3H+8Rdhdss8/PaJn+GB53/vGCAM7omOOSGKGtC+QcFwJI1+UcWwkUa0NwUhbiEkS2g8vBnBoxrZF/u8pmW47NRv4L4Nt+OVPU+NjSfc4oPsEzE7tAjzGpYj7G3GnpG3IUDEqs7j4BX9iCtRBg5vDWzAmQddjBZ/JzRTw4t71qI71oWj5p6BZl87tg+9idd7nsWJ88+BbqiQBA9e63kGKS2K4+edgz2RrUzLENdiWN15Ipa1HA7D1GEMevCj/7oeO3bsqPAulnsagZVriitXWtUcR5kUd3Rth5FTzTE3UZJrYshvKS/ka+CaGA6sxikxMQiciVa5D3wdRTLYfSAp88OA2gbdlOye6h4/KoFKAeGL53+T9UAOifFkFJt3vwbD0LFy4eGQBAlb972FhZ1L8cCLdzkKCMP74jBH9UU8AcKLKRhJExzPYSCWRM9wCpqqwSMJCBzeBP/hYebMSOaFgBxGSo3ByKlM2Njuh+SRsbrjZHQE50LRU1i3+wHwvIizl16CoKcJpqWjL74Pb/asw8FtR6AjtABknnhp3+NIG2ms6TwRqpHG1qE3sWfkHSxqWgWf6EOTrxNUMPutvg1Y3XEiDEuHTwrjzd7nMK9hCXxSCH2xvUhu8eDOW/8ASp/qtneHBEqlWnYBwQWE7EqvSxMDhTi2yv0zGhBMS0Cf2g7Lml5P9Jn8SqsWEHIXeUJJ4I/P/Aobtq5DMhXHv3/qOjz15lrHAIESJaWjKuLRzEYqGBaaNuvwDAOmbiCWVLGnLwLKWswHeASPboR3cfBAKOSEG0WbfPPcEPNd4LnRDJ+0pVuUjZRj2gPSAqT1FERBQlqLQxQ88ItBJLU4BJ5yciQg8BLzcyCtAfk3iLwEHjw0i/KOZByyyLE24+g46vBI3uuUQpoL4O2/RND1Sp8th7GZvObeC2MvBxAoiqFYs+u4VqgvuxEAhRwIpyuJEc3LyQgKu+vPbiRDobEWm4Pdeg/kg7B+/fraOSkKvI42ub+u6jjYvXFp04dhtclVm9oVXM7xTgECdbllz0Z897dXQTc0+D1BfPfTP8VTbz7qKCAYuonI/sTYpi9pgNwPBPYoSA8p6BqKwjPfD9+KIIRmqWBOBIp2CDV54Q1Or/ZpqsIcq1gi7qkVSKAcQAiFQgV7LlThr9hQKtnAC/WXb8NycpO2O1a7m7STcqJIDLvRHhUsmbynFLquCwhlSNj1PyhDSCUOqQQQjltxGr504b8z57/c9tbuN/Afd14NvyfEwh7PO/4i3P3327D25T+OO65SJ8VsquVUTEE8ohyITrAAMWWB36cg5QO4DhmcVFirRJoDXuDR2OlnponpbC4gTKf0a3dtFxAKy7aQs16xu+ECwnjp1BwQqE5DC9MgOJZWoXZPW56eXf8DZ8RdCSCE/A0499h/wulrzgX9d/bLomv/O3hxy1M4+dAPMGfFZzf9DQ88/zsMx8d751cLCLRkkyMKUjF1vPkgu5SL7fmWxXIjNLT6WXjjdDcXEKb7DtTm+i4guIDgxMqaNg0C1WZoEEdYJUiWg32GgYIsikiiCXFVhKJlykS7zb4EKgEEugrlDehomoPT1pyD9x92FgMFsrHHUiN4btMTePy1h9A9uBO6MTnPRtWAMDpNLa0jFdNA/1v062PUCEVaA09AhC8sT6tNM3esLiDYX7Mz4QwXEFxAcGKdThsg0OAz9Rl0VjLaI2TqM4icMSP8EgI+DzzeIMidTNWpJgPPqj+mtMzPdqs+OnEzZ2IflQJCdq7kqNfeOJuBAjniPfn6I+ge3M3C9wo1pwCB9W9RJMX/Z+894OwqzvPh5/Rbtxdp1VCnSEiA6KZjmsEGjA0un53EdmLiRhwnTvmcbofP3+cvcRK3uCSOC3G3sUNoxoWOMEUgDEIFoV3tavvtp5//751zz+7d3dvO3XO3iDP89NOinTMz5505M8+85XkdloeBUjFU0gmQtoAsIkHaUYOY7xAgBCHFpddGCBBCgBDEqlxUgFD6AgQWqEicPpUqmoADhUEuRe1CSzIOUYrMmAM6JyhNNIEF1eRY9kfK0UD/FgKG8st1vgDBa5XREzMP/doJwIIACHSw5scNpvcSRA6RVrGsyYDm3ShY0LK1xxXEB+23DVOzsf9naeSOLT9GU7/v+lqqXw9A8HIxlJOLXyfFRuz6VbVuZTbMIMH1cnFS9EIQX3NOivV8rBxnQ+YNBhoUXmMaBp6jO/vi6/PdRE4yREEAT38oVo3+lBTH4WBRmmidR5aBBR5aqF2YIaNaAMHdFDjmkLhx5YloT3bhmQOPwbIJOLryJtMC0SxPJSkos7jaEp1QxAiGU4M4afXOhnMxeFqDVx6dRP+vCwz4iQqHlecqWHtW2xyQkBpUcej+DDL9S/QAJuWH4VQTXT2falhniUmgFkBQFIXlYgjy0PVziC2muLzcOn7G4DdvRK22g5T77L4WYh6ams2xlvDK/d7LAElAwdMyiMRU494bG2kykGc85EwsZV7mR4FnuuQ57ZMmQTWA/kkZhrn4DmqBCGCejVQDCBwnYNu6nehuW8WSY51z0sVIRpK441dfxumbzmXcACT/gprDd3/1NZafQBZlKFIUql6A7Vgs5DEix/C+a/6Y/f2bfQ/DsRz8zhUfaShZkwtIgBd/No5jv1Gn3l6M8th4dQItfUrR48CBoVp45VcZpPYboQZpnuskfNyfBOoFCNVa9XuILcTB5E8K5WsvBYDg5z2W4jwsOYAwW6AuYLCZZiEiqMyXgTQMiwkWGFjhOAgCz7QLBBjoYHPVWS4gsG0OB0Zl5qcQFqA6QOAYnwElZ6IETLde92eMVnn/wG9x3bk34xv3fwFROYZ3Xn4r/u0nn0Qy1ob3XvVRyJLM/BD29e/FL575H1x55puxue9k/Pq5e/B7V92GOx++A2+/5A8CBQg0l7zIgWPZqt3cikSYaBtOCA7Chb7gEggBQmWRhwBh/stxyQOEsoCBsxEhwMAXGGBYCv4L3mKUZQWKLMMGjwOjUZhL0yQ9/5Xjs4VaJgZ28PI8Lth2Fa49+2Z86o6Pobu1F9ecfRO+ctdnEFXieM/VH8UXfno7dEPDja97F4tkOOfEi/HNn38B+waexxmbzsOhYy/jmrPfivZYO37+9F344zf/feAAweerh9VDCTRNAiFACAFC0xYXwPbOskyK1936JabPL/oUNnMM82qbNAw8bESFAqJCnoEF+v/FLAQWLEfCsNrFAjvDUl2DQPIhDcElO67B5ae/Ef9537/huUO7sanvFHzoTX+J8cwoi1xIRlvw1//1IaTzE+hs6cUfvOFPcXDwRfzgwa/DsHS0xNrw1gvfw8IiP3fnJ9HXsW5ePghkYnjpf8cx9MS0iSGcy1ACS0kCIUAIAUIz12NNgOB1vtSBwtQ4OYeZIBhg4AtFZ8eFBwxZK4mM0dLMuVtWbdfSILTFu3Dqhl3Yc2g3UrlxRjlK+QgSkQRUo8B8PSJSFKncBItg2LjyJKZxODT00hQHwor21ehuW4GXB/Yy34R5RzE4wNHnshh4KAfHdmAbHLSMzX4uV6QYDzG2NPMYWroDPYuKY19Wiykc7JQE/AAEvzbupSZmv74PS9XEsJzmgRK7VdUglFskywUsMLU1Z08BhgivLpg5grI/Gra81L6xRRtPLYDAtFXMsyQ4R9R5AwQalAOYhhtJYRk2Dj+SwtDjOizK1FRSkmslbL2+FZG4EKjHeFATZmgOfvvDMaQOLdEoi6Be9DXWTi2A4GVzbCQ8sVISJ7+hg0FOSaUx+QUP1cbkJz9EI4e9X/kt5jwQQHj88cfnJmvyTAzVBLmcgIJ7AFG2Owsy42AwmA8DhVgG7fBI2R9H9B7YYfbHqeVTD0AIciOhtgIBCLMGZag2jjyRQvqw5YYMcoCc5NB7moLOddWz5gX9fn7aC4mS/Ehr+dStFyD4PZRIAot5MFWagWYDhEpAo5HMiWUv15RdtUzkWy3AUm5cjcyp35U9L4DgdbbcgII3btIukM+CzLukTQpHiXnmDxgKVhyTRpvfuTiu6x8vAIEpFShqgegUi4UxJ/L04S/dKQwBwtKdm/mMLAQIrvSC0iCEAGHmagwEICx3oFAKGMh/gRJMUVglAQby0vSrYRg1umBYFCcfFk8CxxNAWI6zGgKE5ThrtcccAoQQINReJY3XqAgQ3njrl+bFGrxctQrTonQg8BYExsGgurTQnFETMJB5YVjvBbErhmVaAh5A+JNPfwAdWxTIEUYk0NRy4uod+OiNf9dwmGNTB7fAjYcAYYEFvkDdhQAhBAjNXGoVAcKbimGOpEidj9vY8gcKrvhJiyDwRNJkMe2CzGsQYTGTRGnR7AjG9c5mztmybJsAwm3vfh3++/7/wGln7IAgCE1/j454N+NJoFCdPXv2uPPIcYzY1rhCOgAAIABJREFUaseOHbj99ttx3333TdkEeQHYfEMLVm5bur4EjQotBAiNSm5pPxcChGABQrXZ9us7UKktv74Di+kLUhMglL5ko2CB3aXngzKW4DdK/AsEFiiNNZki6G/SNkyY7dCsmcmdluDwF3xIBBA+8Laz0dreuiDggF6QQEhPV48vgLDp+hb0bT8OAYLh4LnvjWJin0tbHpbjQwK1AEI9uRgqHXx+7fGVJBqUf0Aj7fs91P1Ge9C7BfV+fufBu/D4Wcl+x+qFOZY+R+kGOE+DUK7zRoECe6HjDCi4k+S+FLE6mo4YmhfKLBoCCO+9cSdUdeFIh5LJJLZv3143QCAnw44TZfSdGQfPH18mIjVl4fAvMlAnF54TxM8GFtb1J4F6AcJC3IwbOcD9va3/2n4Bgt/bfTWA4Pcw9jtW/9Lw78xZkSipGkDwBhYChUam6LX5DAGES3e24Iff/AWiseiCCOGkbZvwsb94f90AwQV7AEe5FhZkhAvXCUtRPou7YeF6D3tqlgRCgFBdsn4P3RAgzJTnvABCKVCgnxtRDhyP5odmbQbLuV0CCOefFEE0swOC0cnSYze7dK0WceGbu3wBhKkxEVDgwdI6UwhjvYUOYQqDrMS2WG87Yb1QAvVIIAQIIUCoZ51MndU+Qw8CAQilA5zPvn88mh/8TN7xXNcDCLHCTux7SEQh54/RTxDcYFOPf4Ad3ACsEj6C2fJbf2oM7/7ECf4AAgdIUQ6t6yS0b5ERaREhKER0UGN26IZu2TByNrLDJsZeUFEYJVrm43lWw3dbbAmEACEECH7WoF+zR0WA8LaPfMExbA6mxTWUxjY0P/iZtuO/7nwAghIV8NY/Wg/LtPGjzx+GbQNvfN8axFslfPefDiGfKQ82/AIEMi/EV4pY/boI2tZGIUiUvnu6FIkTa04WfYRaxsDRpwo4tlsLVfs1JRZWaFQCIUAIAYKftRMYQPjzv/ss05LaNo/hnIjJ3MzN0s+gGr1EhRoFP1Je2nXnAxBWnhDDB/7/rZAkHvd/exC6auOq3+1j2oP/+MQBHHg+Xfbl/QKE+AoRW29oBS86SHTOjESxDAuFUQ1STISclGqaHQjM2BZw+JE0Bh7KwwnTfi/tBbpMR1cvQPBriw9SHH4PJb+RBDRWv31Uej+/cqrWb1BRIIs5F4ZhlE/WRADBG9hEQcbgZOMAwWunUaBAz4dgIchlsvBtNQoQ6INt65bxoX8+EfEWEU//YgJ63sZZ13RCzVn44sdfwrFX1bIbhB+AIMgctt6YRPfWBAppHbFWN9EWoeT8mIbJw2nkxwvgBB6tfXG0n9ACMVqZ7ImSOZFGwjQdPPMfI8gPhQhh4Vfd8d9jMwFCUIdutVko1weFJ/s9qCtxBQS5AoKSh993C6pfv/NA4zRNs3yypo/+xe2OJCsQeB6TuoKBsVpG2PqnIgQK9cvqeKnZCEDo6ovgLR9Zh4PPZfHqyzlc8uZe/OBzR1hWxTd/cC0eu3sUHT0KTjqrBT/+whEcPZSfIS4/AKF1vYTtt3RCkPkpgED9jL00gdxwngEF8u/xPlZeERhIaF/bUtY/wQMI5CvR/3QGB36aCf0RjpfFvITeIwQI7mSEAGF+i7JSBsuKAOHW2/6KaRBkWYEuduLoRHAAofRVGgULoUZhfgtioZ9uBCBsO6cd7/jz9TANB1/5xH4c2ZcFOSuSwyAdwCvXx/D7n9wMOcrjR587gifuGWkMIPAcVp8Tw8bXt7I4R0+DYOVtDNx3FDlbgxgVWL/kJJnP6sgMFrD65E6ccNlqxpkg8jIkXoblWNCtAhsfaRAIIOQnDTzz1THomUZX+0LPVtjfcpFACBBCgBDEWm0YIEiyDEPsahpA8F5uPk6NtQQUgolaEmr+7xsBCJ0rInjfJ7egpVPE9/75FaZ2PPfaHlDU4RP3jiKXNnHLx9ajkDEZgDj2amMaBF7ksekNSaw6PcG0BB5A4HI2uP8dR/94GukWG7pgIzOqQj2mIWGLWP+6Fei+fAU4nse2zvNx+ea3YP/Y87hr/9dgGOYUQDA1G7/59xEUxkIzQ/NX2murhxAghAAhiBW/5AHCQgCFIAQZgo3GpNgIQKAbeO+aKPo2xkDmhgvf3ANJdn1hTN3BIz8bweDBPIYOFzB4mMwAM8dWr4mBF3hsuDKBNWcn5wAE6e4JFCY0FGBjOJ/D2IQGQbcRlQR0nd+Lrsu6mcOizMdwUudZODj5HDLG2AwNgqG6AEEdDwFCY6snfKqSBEKAEAKEIL6OZQMQlgtQCGJSqI3XCuBoBCAw+XDAibvamKnBAwee7AkkfP9fD+OZX46VDcWtFyCQZqLnVAUnvqmDHfZTGoS8DfGeCQg5wLJtZPIqXh1OQzctCCKP3ot60X4BAQRvRGSGc317S00Mk/0qnv/mBEy1ESqxoFZa2M7xKIF6AUKld/frMEftNNtprlIUQyNjtazyoJwYE8u1FyR1st/15vf9mj0PNP6KUQyeD8JCmRgqCbOZpge/E7gc6i9VwNEoQCCfg5s+fAJOv6yDbUyG7jBQJSr0gQN7H03j258+ANOYa9/3AxBiPQK2vb0T0VZxGiDYDqR+A/aLKjCsIZfTcXh4EkJCQstJLWjd1QG5y412mF08gEDg4eADKfRTqGOID5bDJ7SsxjhfgOCCcH/+Zc0+mCqNp5HwRwIIfiIlQoAwc/kveYBQOtwQLAS3d9W1JQR4oDUKEGjv2rC9BTsubMfEkI7DL2bZJX3dyQm09cjY91QKv308BZtIO2YVPwCBDvLVr4th/QWtUPPGVJgj9cXlHYivqCi8lMWooyG5sx3R1VHwxLBYoRBAIKfG3IiOvd+agBY6KAa3eMOWpiQQAoTqiyEECPP7WGoCBEGUYMndTXdS9PMaIVDwI63m160nn0ZH3MD5J0bQKNUyRQN4oYburYdyJXBT1Mvl3tIPQKDnpRiPtZfE0bpWRLKHiJKmYRTnOLBTJhyZA88iGqpDLFO3UJgwsP/uDNKHjcYSlTR/6sIelrkEQoAQAoRmLuHaAEEQYCm9Swog1BJIvRffeuvV6i/8fW0JdFKypnkAhEo9EHAQJY7Z/NmtvaT4BQj0qBjh0LVdRudJChKdMlBHGobSPmkERt7C5BENQ09qKBwjFWdt+YQ1Qgk0IoEQIIQAoZF1U+8zxyVAqPfl663nZ3+vVZcunq/FA6MRgED+B6s2xhFNCuwGTmaEV17IsmiFSEJg9/sTTk7gwjf3YvfdY9h9/8gM2TYCEDzthBjnQeRJcpwDhUHWUxzbhqU7yB61kBu24ITplesRW1hnHhIIAUIIEOaxfGo+WjdAGJh0VapL1Qmu5psugQqSCHTFLRQMIG/wMCyOJR6iUgtYLIHhz2sIjQAEyr1w6gXt2HVFJ/SCg4PPZ/DkfWNItIs4/7peCALQtUpBW5eML/35Powf0+atQShtgFkR6nLWmJdoKj7MgOTxvjCaI7rXTKv1AIREIrFg8vDr8NjsgVViWKwUxcD2Yh83uGpOjYspi6D61jStfC4GL4qBeLHJxOABhBkbaLh5+VrfnUmgN0GHmAPyqXMcHmmNR0HnkNd5WLYLGBoR61Ln6GsEIKxYF8Olt6zE6o1R6LqN8UEN+57K4PG7h5mmQBA5vO1jG5CZMPCzrx4JxMRAE8oLgNIuoG2jjFgPD0GoT4MwZzE0MJHsEYrW0BykDujIDlow8g0uCl+rM6y8HCVQCyBEIhHE4/GqrxZUUiE6dJtdKoUt+u2XzrUgCsmuWiil3z4q8RH4aaeRaI9K7RNAePzxx2dQWYuiCG42QBgsahDKHUShVqH29BH73/oeGzKngpsOnJ96sBxgMIuAoXbrwdcIGnA0AhDoBi9KPK54xyqoeQuP/e8wdJVCHS327zsu7MCFN/TiW7cfxHB/YY4QGjExkKPimotjWHlqvBhK2bgKQdcslva5UXxBiZ4KkwaGdquYPGjBsRpAHMEvjbDFJSSBECA0NhkhQKhPbr4BgtdspQMkBAvlBU/mhfUdBeQzkwDPQ5ZkyLLMaHrLE3YAtsNDM4CUKiCrC7BsssPXN7FLrVZ7g06KBBK2nN6KK9/ZB12z8cB3h3Do+QzectsJaO1S8MN/fQXHjswFB/T+fgGCFOOw+U0t6N4SrxWkUJd4J47l0N5b/fZWqyHbsqFmTBx+MINjT2vAMp3/Wu8Z/r4xCYQAoTG5hQChPrk1DBBKmw/BQm1hr+4ERGMUulZiJ+c40H+U7IcyZxIpVWWGL2Lz46GbQFoT2B8CC8sFMBAPwnnziGLwogpdFTwQiQkwdHuOWaF0JvwABE7gsOGKOFaflfRNHFNp9jNjKpKdFC5Zvhh5B2YWkNsASjddrpBjJmWVdCzg+e+MuyGTYQklUJRACBAaWwohQKhPboEABK+rSj5Vr3WtAgGA9Z061Ax52VdXEzOAwPOQRAmCJEIUJddPblbcPTVj2jwMk0NG45HSBObdT1qGpVjmCxAaeSc/ACGxSsCpb++EHBcb6arsM9UAgpEF1k6ei1M3n4EfP/xNRHZMgitjFiWAYBs2REXA4HNZvPyTNGwzsCGGDS1zCYQAobEJDAFCfXILFCCEWoXyQm+NA11KCoVctr5ZKak1DRhEEGkVcxBhLEEzb5wuYOAwlhcxng3GAcf3YKs8sKQBAs9hxWkRbL22nZEvKWIEmztOR1SKg4OAVydfxFDOzSbZGz8BiqBgIHMAmzp3ojO2EpqZxwsjT0A1stjatQtHUvuQ1SdRCSCYeaBv/DRcuutaCIKIb9/zFVgnHWHOkVR4TmBA0oHNQjs9gEBpo/d8fRzqRJj0Kci1uZzbqgcgUBRDrYtJEDIIynO+2lgqRSVUeqacwx7Johqdsx9ZUFvVIiXKtbWc5qLuKAbPSdGX8IqVy92ZX0tahdWdDnhtBKYRgHqY4yAKAjhBYH4MIjk3kKGiCBjG8yKOpcSGIiH8zK3fuksZIFA2x41XJ7H6TDccjOd4tCqd2L7iArRFuvDYkbuQ0VLY3nsuOmI9ePDwnRA4Cdt6zkZcaYNh69g/tgfD2SO4cN2bsGfoIYwWhpAazZY1MRiTGtRfjOKMM98OVbFwQHkUUgsd+hxWx7bi0k03sv7+5+WvQTXzUwDBMhw8+60RpF8JVQh+19/xWr8egJBMUpZSJzCQUKmtRgBCEF771cBBpcgKOtSb2TfbRypEdfgFOZXer9nzQP3WxYNgE5NiMYqh0Q+tWkj38QwWRAE4oVNFIT0e2Ac6Yw5KAAOZJUYKMaQKUqPT1LTnljJAoMyMG69JYtUZ0/Hi7dGVOL3vIjw7+CAmCsdwQvvJaIt0Q+AEPHn058wRIiG34by11+Kx/ruR1SaxIrkOmzt2IKWOwXYsPLj3PiQ7lRkyNSY0jN5/AIbhoOucUyB3ChAJHBQVQgofw1Wb3oUXh3dj3+RTLIukp0EggLDn26NIHQoAaDZtpsOGF1ICIUCoLG0CLCFAqG81VtJq1AYIoggx1oNXRhsP9yodoqdNeK1oFdoTQCs/Bl1T65upedRywGPE6IZpB2dHn8dwZjzqAQR7eBMevOdFaGrzD7mTz1iJj3/mGui6jj179rDx0KYhSRJ27NiB22+/Hffddx8zK/TtimLz1W3s54iUwM4VF2AgtR9H0i8X34NDT2wNuuJ9eHH0CXbbP7FrFzvXfzv6JNM6nNJzHiJiBHkji5iUxC+f+xmi7e5cUB4J0hyMP3AIBc1C75UbEe2Mlo2WIO2E7ZhgRoYSE4OaMvHsN8ZQGA1NDEGty+XeTggQQoAwWwJBaXLq1CCIEOPBAYTZYOF4Bgqk9d/Ya0NND8OukJc8yA2q4EQxoXcE2WRgbRFAuGh7Ev/5uZ9ieHgksHarNXTWuTvx+a/9Y22AwHFIrhGx/RZyUhQYiBA4EaY9E8QQfwUHnh3eVESeDnILNnmHzvIdID+C1Gh+SoMwuncU2lOD0Dmg96qNiHXF6pJBKUAY/m0OL/6AnBRDPoS6hPcaqBQChBAgLDJAEKBLPRhON48lq5JWYSmZHmQRiMkWVIODbvGMya8WIye5B6xty6FA3AdNLg44DBs9sJag9oBenQDCe27YiVwu12RJTDdPttedO3fWBRB4kWN+CH2nEwdCMNqyUidF9WgWQ/cdQst5q9Gxub1uGXgAwbaA3/5wHBMHwsyQdQvvNVAxBAghQFgUgPCej/yDI3ImBJ7HmNUNzWgeQJitVaD/n31HWmyw0J200RU32LhMC1BNHjmdh2ZSqKEbQTAbMPS2O4iaY9D1mTkCgt636Dwr2BGM651BNx1YewQQ3nr5Rux+9JEFc6Bcu3Ytbn77O+oCCPSi0U4BW65vQdvqSCAgITNSQLI76srQASzDYomfyIxRb7EtB0bBRP+TOQw8VAi1B/UK7jVSrx6A4OViaKb3fKNtB+koWA7YH88+CJWWeCNz4dsH4YYPfNHhYEMRTKiWDMepf1ML6tus6thYDkUE1fGsdugAXtdpICaaZcMLSTaqySFLeRUMN6eCbnHY0GWikKa8Ac1VCbclIxjTksjpIjSTY2CFiae53fqSNgGE80+UsfHAbvT19CxIEiSp7wSsuK5+gOCBhHUXJ9C5OVqkWvb1mjMqF7IGKCOlH0AwAyxbDgopE4NP5TD8tB6Cg8an4rh9shZAUBSlZi4GvxqzxfTOLzfWarkH/EZvBLlXl2fIrbwpBzUPft+52sehqip27949NxfD9X/4pSVzvFRzbAz6yy+nqaBIhFWxcVi2AVEQIckSBF5gDIiYlVfBNT1wcDgOtqEil80EPcQZ7dEYOtriMKEUzR4cAwmk4SACJcoYqZuLDxhcgKDg7PQhxB76MazcaFPlQo1LOy5D799+tW4NgjcgXuLQulZEyzoZyT4Zgtyg9oytBfJP8AeuaQ1pKQOZQR3jLxrQMzYjwQpLKIHZElhKACGog6la+N5yAgh+V2tQAIH6DSqUclkAhNmCXui9sivhIGaPwDKnndY8siIiLiKKZOImILAwja4dZNIpWGSPaGIh7UYi2QKOAZa5BxklgbJtHhmdR17jkNMFZiJZ6DIFEDKHELnvG7DS/b6HICRXIrJll/ucbUN9+UlY2WMV25HPeCNW3H6Hb4BQ2iBPGgB/57vv9yr3AMvqSZMXllACVSQQAgQ3MqnS4eoXtASpQfC7cJcVQLj5w190LIcDOd8vxDZFm3Br1GKqessiNT0lK/Ir4vnVrwQ8NnaZ0DLVTQWkMaDjmQ5piQiMZAnZdHp+A6rz6XJ9k4ajHONiKi9iILXwYZDzBwgc4rveiNX/9EPXzGPo6L/teuSevbupAIE1zgOiXHkTqnOawmoBScDQaHMIqLFl3kwIEEKAUP6CEcwHUlGD8Od/91l2gaEEQaM5EZP5BtWsdX6AimTjhA4DPOcwYOA45AQIaKaAtOra9RcjzwDZkNe2pKHmFuawr1NctasRqi7mdBAlCZIosoM1rUnon6wOEJrhEBo4QDB19H+k+QCBLEhdOxT07owg3j6T9Ig+EIoycDUMs9UMhG5pDuj3Nb6dSkB4ITQXCwzCpxZug+9mahYGn85j8LFCaHYBEAKEECAsCkD4y7/7LNs6CIcUTAmvjDaX3z+hWFjVqkPgwOz3s4tFqnKLR5ZU5YarKidbbbOzGUqijV55dIZ5ofbpvARrMDUcj0mrDVmjcobBZo28M1r0QWjYxMAhfsZ1iGw5FW03vBe5R+9B+v7vI//cfU3TINC53nO6gk2vb4ekTB/yumohN64yOx/7SGi5zl6yRQBPTwmigHhXBKLYXJDdrLlbau1apoNXfj3pRnUEc1Faaq9Y93jqAQheFEPdjdaoWMlJ0a86v1I3QfogBGWLD0p2QbZTaR7YuR3Qh1FRg/DhP/0Hh26eiiRDdaI4NNIg5K9TIjEhhzYpwxz/yK5fmpionG3Gta2TVoErggYeBZ1nG3ZAsmEjjysWWhyycy/WVatOAdZRTXdkjJtdVSNSmrXfdpKT4lYFZ88HIJz+BrReeTOiuy6G/tLTGP32v6Dw/P1NAQjkztFN4ODydkgR92CnjSs9osKgnNsNlFiLglhS9uWzyJLBWGR2I+TcQKcL+AiNleRGSaeEJluxpkDCwwUQR8RrtdQCCJFIBMQHUu0wtsqQuFWz61c7mMr1UynvQZBzVs0HwU8/LDneIjgdeUmfyvlAVJK333molliqkoyIhfaJJ56YG8Vw621/5V6OOA5ycgVeGW3u7SchpJEUZnr8e1zaJAhRkkEpOskZkDQMsyeRhURSRkOLZ177OYO8+AlA1EdqVElAAmchIWSgcCo4juiIbJ8+6X6WZ/Pq0sjTVhvyVn0MfkGPpH0eAEHq3Yq2q98FLtECeeV6yqbEUKAxcBBWehype74FY2T/nCE36qRIB1zPaRFsuKwNcnR63aeH89D1maeRrVuwCyaEuARK+lQtGpg+0ERbBFECCXUUQ3MwPpyAqrXBwdwTlwMHWRAhsmRdPEifoVkGrDpDHgjyk6+KzIvgOY49ZxEltO3SPNdT6DuM8BTV48rJsi2YTgGRyDDaenUW5tmsYho2Dv86jYFH8q9ZkBAChGBXV1BpoBsZFQG1ECCUkRwBthZhAjE+X1WutBkROBDIIZDAQlHTQJPqmoHnpkAmvwXDEmDYZJYgvwZX61APE2LpYDg4EHgLAkzIvA6Z0yBwJkhnQb9b6kV3FIybnYvCZ0GymQ9AiO24Eqv/+ScsUsM4sg+Ze3+Ilje+C2JPHxw1j/6P3YT8nrmmhkYAwhQ4uLQVcmzarKblTWTGC9PTbDrQKSvjpAZLM8GJHKI9McgtCrgah2JbbxyiVB1wkyPe0NFeGGZr2TDJpBzFtTteh1PXbkE8EmXOsUTnPTg5hh/t/jn2jfQzwFAZ+PI4bdVmXLXzfPS0dbAkVHS4pws5/ObAXty99zEUTL3i8/SlrUh04OZzr8Sazl5EJNc/QzU09I8dw/ceuxsT+l50r8pNpbFuxjcyBRIezcNuTLHTjGEtWJshQAhW1CFAmClP0iA8/fTTi6tBoJt5uzjObul+i6cKI8BAfyRBBC8K7GbE3MRKQINLHEQkRgQaXFIjok6mv72IiXrJhQgU0LiJbVLkDMicAYEz2M+uSXrpgAYbPMaMLpjO4mV5nBdA2Hkl1vzTnUxzUPjNgzj6yd/Hmk9/H9LGkwFdQ/+f3IT8s/fOWTp+AQKFNPacpmDDJa0sJ8NUcYCJwSy7XVMxswYKIwXYmnsiMada5qzIUYIGJFYnIMUq69ijCRnxNvdApdgXgRdZTodWpRspbYQd1MeOxJDX+sqCg6gg470XX4+zNm1nN3e6eWiajkhEYUAhr6n4zE+/jhdHXi27CknzcOaarXj/FTcjIhMJmoOCqjHtnCxLrP8HnnsC33rsbugVTt3OaAv+9Np3Y03XCvYemq7Dtmw2BpLDqyNH8c//+1/Q5efQ1uWGB1N+CvqdVWyTJc7iFcSkBPJGjuW4oN9JosLqamZ+6kZFYxYECZZFbKYOy4Mh8BLjmcgX8jj8YBoDj772mCZDgOD3xKhePwQIM+VDe4NpzkXeXKmJIdbai8E0B1Wnm7d79NV7kNYzfXTQdorDkLhgrgBso+Zp4+UhkAqWMlKK4jRYmAEaOLbBE/MhkQrldZ79zECDT4O8p2UQYTLtAmkaJOjgOTJLzAUMokDRGZSXvB4pNV4nZ8eRNtsabyCAJ+cLEFZ87J9gp1OQ1m6EMfAKpHVbUHjiAUirTsCxf/mzeQMEDxysv6QVSik4IABg2ZgYzE3NoH1UR+qVNOyoDV52gYSp28iOq8iPaFh/0SrEVkZJ8Y+oFGNrUTfUqeRPgsCjrTfGDvOe+Bps7DwVA6mD6E2uxVNHfwFN13DklXWwnfKmiJ2rNuEjV7+D+QeRfffu+x7GkYFj2Lr5BFx8gcsTcWDoVfzDnV9jJofZJS4p+Jsb/gCrOnvZrwaHRvHt796Fzo42vO0tV0NRJBR0Ff/w46/i0NjROc/T93X1SefgnRddy36n6wa+96N7WTs3v/lKrFm9gh3sP3j8ftz1/PexYu0E6J3Xt52C1kgnA+8ThVEMpPdj16rLsCKxFgPpgxjJDSBnZHDaygth2xZG8kdxJPUSWiPd6ImvQndiDfaPPYvfjuxGR6QXJ/ecBd1S8Xj/PdA14zUJEkKAEMDmVNJECBDqk+cMgNDe2emmnS1SCru3b5dOWDM45iw4H9BAB2i3dIzy5NU3Op+1PC0CTT5pGdy/i6CBXeOmTRPeYU3veHCMblc+OyupTsCHPMsI+JB2gbQMnsaBwjlbEhFkc+QNP49OagxvKWgPaIjzBQg9H/wU7IlR5J9+COqB55C88Do4honI5m0Y/ve/nRdAIMfY1k0STnxjOyLJuTd/y3QBgud8Eh+wIOxT0W9koSYdaKaN1EAO9qSFDkXBiqv7IK5QmNr+d173Jziheyu++dC/YN/wM65t33bQuToJSZRxRt9lWNu6GeOFYYzlh/DcsYdQKFgYOLKe+R3Q2l3bsYId2HldRU5TcdPpl+CGsy9jM28YJj7/5e8wQq5oLIL3v+etbDmn8ln8yR3/jKxeQEe8FQklgoxawGQhg85oEp+6+UNIRGLsIH/w4afwm6dfQDZXwPvf+xZ0d7nJpL5y/w/xwMu/QUSU0dfejcl8BgVDg2Ga+Pg178Ypazayeul0Fp/79+8wQqprrroQu047mY37sX3P4su//Ap61x1jYbZnrb4SRzMHUTCyGC8cYxqAN2x5NwYzh5kMnhx4AKqVxzlrroJm5KFZBTzefy9LpX1G36WISXE8cOj7LJ02pdo+qXsX+lP78cLIE8jqkzA0C/vuTmH4WXNe323jX/x8nqzlq+GAc+iiMXOPDAHCfGQ+99nFclKkkSxFH4RK0p0BENra2tgtaEahfY5pEtw8BAw06G6mQ3Ly9pMPQOINdIojC6og7krLAAAgAElEQVSW90CDKEpFwOABB1cNSs6O+0fnBxDKCZdAAw8LcdnE6jYTExOpYFd4SWsEO7JWC7JWZS/mpnU+q+H5AITo9svR8wd/DWtyFOPf+3fkn70bHW/+KKSetVA2noSR/7wdhecfmPMqfkwMsS4Bm69rRdtaStQ0sykCCJOkQSj+e6LfQvKAiWxOQ86xcDSdgZo2ITkOIjEZrVf2QOx1TQidsV6c1Hc6Hj/4cxi2a9OnZjr6EhAFCWetupz9i+kY2De2BxltDJpmof/wCQQtIfICdq7dgtZIHPuOHUH/5DDesO08vO38q911alr48n/+gLWbjMfxzre9gf08mUszgFAwDazvWolVHT3M9PD04ZfQqsTwj7d8GMlonAGEPc/vw3d/cC82rF+Ft9x4JVqScZbC+vP3fBePHHoO3ck2bOpZDUmQ8PzAAQY+/vDSm3Dulh2sr1yugH/94h0sjPO6ay7C1s3r2b//au9u/NfD/4neE0aY6e+CddcjLicxnh/CYO5VHMsexvlrr0XByKGvZQOeOvoAcloa21ecj9H8UWZuoMOfAMLpfZeiPdKF+w/+NwNZO3ouRHu0mwnz4PheHJx4HulhAy/8VEVmsHmAe6G+l7L9OA5EKzdjn6wFECgXQ60wx0rsgX69+YOKJKB3D4rR0O+YqkVvVJr7oMZa6b2DmodG5FpxbXgmBmqUUJVADoFFx0Ai4GGOgWXCQRg3gePlA+CgGgLTNKiUpba4w86+lUd4FW3i+IIChPKHN+VW4Fi+BYOPYzDTHI9/5uDV5kCx6DBoXqZHw5EwYXbAcpocc1bHrjkfgMCJEfDRNmZvdtQsHDMPXmllsXScIMIupOCYc/1X/AAEeoVYt4Atb2xFK8vmOP1SpOFhJobiwo0dNdF+wAJnEZC0cGw8i5FUAYZlQ04IaL+iF3x35UgFWRGQ7IoxgLAquQExuRXD2cPsVk3FMoGBwyth2omykl3d0oW/eNN70ZZIMs3d0NAI9v72ALu5t7W1sGfufeYRfPOxu2E6c2MAZUHC+y++EedsOZXVJf+Fhx59Gn0runDi1g3sux5OjePvf/RljBXKE4TtXLkBH73u3exbIbnsfWE/xibSOHvXNuaHYFgmvvrAD/Gb/nvQs8oNX+6KrYLlWAwgkaYgb6SxoX07ez4ixfEiAwMiTlt5kRuV4Vg4NPECJgrHsLlzB0ZygxgvDLIxK2IUp/ScA9XIY//4sxgbzGLvzzQXHDhuoIvfuCv3wrOUo0kJIOTBlcxpPQAhHo8zmZXb7KsdiH4PPr8HWbVtw2/fldqqBhD8RAwEOdbjYR6mNAizBePR+rKDdBZoICBB4VLloglc0ABoFjlRuaCBnAXJPBHhC2gVJuoGCBQ3oNpRZuf3IglonEE6Bk6aHSjYxVS9dRyAfqrIIrCxS0dqYjQwpDy3fw6TVjsKVnPewc/7Ut3yAGHWWmEHcIXbH+W5kONwLB2cnETstEugHXgWxtDLZZ6hlMoCpNOvwYp//LavXAwMJLypFW2rIjP4CiaHcjBNV70rGEDiqAl50AafszE0nsVEtgC+TUL05ASUDXFAqqAydsAcFGuFOo4PAansejhlwB19Y+edsB3vuPANSEZj7IbNDoCimvLFgUP4wv3fxYSWqzhNKxMdeP9lN2FD72oG9r1CmoNULosv//wHePbogYrhjoog4m1nX4WLTj4DsihNXRZo89NNg2kPvvfknUh2HELMxSxlC/lpzA6pLPdv1dZbdsTE83dqyAyRdg6ISYDCO8xZ2c+hRVEgJmXQNDloi8itQFuowFKCk0NnqY9SCBD87jshQPArsZn169Ig1OyCeAnYCe2CBhZNUPzb4zKYAzSKmgYCCbpWgK3n6obuBTuGSbO9yEvgRhJInBd6aDGnQPJnKOYwrDn82RUs8Bg1emE7fu8g9XXVFge6IxlkM82hb6bNpaUlikktzhgnNZOyOrqanfn4VNT3duVrlQMI8qpTEdl0KjhJgmNZMI69CvXFh+CU8ZwXkiuw4rbPQj9yAJlH78HKj38Wqf/5BiZ+/G9wbM8Rj8iELIgd69B62S3QLRvtt/6NL4BAoydzw5YbWtHWNw0SmB/CUMmB6wBKAYgfMZE6nEG2g4OyNQEh4fJ0VCoEottXxGqmgKaoiLFjCrK5lbBZ9MnMNgkk9CU6cd7WU7GitYfxDZBvwJMH9uKZIy9DnZJJ5VlLSBGcvnYrdpxwIotgIBto/9gQHn75WQznJmvG4Ygcj3Vtvbh025lIRBMgl5u0msODLzyJw5MHkGg7imS71dRkV9lRC8//REV+yIUZLREeisTD1jXwEpFS0ZovRpjUWMC2SRFIHBxBQCpvsQuMV5jfM4vAmAawAl+MYCnBtPTtzajDAcQCW1rIWus5QDMYwAMcaVdp+TpAlMZPb+MAhN0KOvFTUAshQPC7B4UAwa/EmgEQKt0OitoEUXSdAiVJYuaK2aChkMuBKB3rLSmrFXmrvPrVJTNyIPE6RM6CggLjL6B/I9t/LVcgGoNmE2dAV73D8VWPRNLXZgGF4cDoMGcPQJYExp5GrA1sW2FgjEdep2gNHllKA22TenzhAEM5gMDHuiCt2IjeD34SE3d8Dvl9u9kmKPdtdndGNngbxkg/xGQXOt9+GzK/uhN6/36s+Pi/YPBTf8h8YyIbtjP6Pjs7gezu/2E/d9z4YUQuvRHC+pN8AwTqNtoh4MSb2tC6Upk6m7WcgczEzHXK0YGhOXAUdoJUXQu07lu7oxCLkQ+1Fg4dbPk0kEtHYFhkTijfPh1q3m+qcR9UBC3Fp139SGP2e77YBsdZEIVJJDtNRKL1fG21pFD59/lxC8/+QIU6CsgCx/K4xJWZlPAkQwI+ZLIgMwfjUimi5FLg4LJATl8INMPGZKGoMeI5JGT3XUizoBo2aycuuxFQed29jIg8h4jMg55lTK/MdCKgYBABjvseEqtDUVI0LgeiwCEicsWxueGyeYNFy4LSzOc1m9XP0xoLAYLvxRICBN8im/FAMBoEH2PwbF4smqAYfqgWCrDKxFpWanbM7IRu159PwAMNLl+BDoVXwXOkJyBNw9wNMW23IWe6drugCwGE7mgGgtkc7QGNl1TGSoS4/ylBU2kK6um3KaWpJidTCu9sZkKssiYGXoTYugorP/4FjP7Hp6DufxyRDWei9Zp3glfc+XVMA5lf3Inc3l8hdvoViG7ajtjO82GODmHwM7eCV1rQdtW7oGw6GSNf/zSMoZeYFoH8FiLn3YTuT3yxIYBAfUfaBJx8SxtayOGweNYZmonMaMFXplG6WRPLYktPFEKD+RiWTepnZjVqLjCguSlM2tj3Iw2jRy0WzswOcN6BTNf6kkJhoORjQd8CRXxEIjJUlfx+6KZvTV1YqB7ViSiu7whpAcazFnPEpimLRwSmITFtG3ndTSgXk3lIApBRXTMAaQ/oMDdMwq1kUrURFSl3DAEUivZyIIs8AzMExMxiZFhM8mITHKal0AwHiYgLuagvAj5plXlIhD4IPjfkECD4FNis6gsOEOY3XIqc4DFmdsO05+d454UgKmSaYMyILmigMmZ0N82xj/bOqKBDRo6ZRTxzSCW5UP1GzQKevwh9JLKssBTUFINOatfZH46nZSBn0oIpIKtx0E2XQKrR/kvfaTZAcNQ0Vnzs85BXrwff0gE7m4KVnsSxf7oN+uCLc8QhxHvQcf2tSF51CwrPPIxjX/gz5pwo9W5G6yVvhrx+K8a/83loR1+CmOxA17s+DvGMi8B19TUMEBhIaOFx8tvaEO9WIIhFo5XtgBj81IwOQzXn+NyUDl6Ji4jEZRcYNP/cnO/nteSfJxZpNWNh3/d1jB2zmOpdEtyDmsA+HeSzC/E00Ho3DIOBZwIK9Dfb/Jhm3z2wSYOgFAEC+SKM5ylc0k3jHlPIn8GBajgwLAeSwIF8iZxiiLdq2lBEV5dDYyKwoFHoqSxAN2woTAtA2gAedPRTG4btMFZY9hxlsbWJDMrVGsgiB0nkkC3YiCoccgRCGgAIlIuhVhRDpcQ+jXD9B7WA/DryVeo3KGfHyvtzcB81jXWxHCf9yq+ik2JQC6DRdgggjJg9sO3gs0t6moZm+R7MfWc3VTAPEzFedbkSeI1tV6TdiMcUGKYFvcHkQGVlTDTV9IdSQcsKJJkczGjTmptFk2kZHA45jRJiCciojftklNMgcEJ0VlYfG45RYGaF2YWPdSOydhv0sQGYY68Atg6OFyH3bQNECil07cz6sYOAY0DsOgHCpp3o/ovPzQsg0DiUJI+O7TJEufH3b3S9L9XnbM4D6HS4zfWQ9wCot+F5SoVSsFmq7q/3PWlpjOwF8pPTT7D1TAe946AtQXklpn9H/TMNgiQyTcNsfwQaj27oDDiTKdQbd0GzkNamtYv072RCYCYLh0yYZKazmUWGCM/cdl2zAmkxdNNmvgcEAOhZynNBfZFmgZ5hMqNh0nMslwYYKPDABT1PhTQOpLXQTdeB128Uw3ySNfklDap0wNU7t6X1KgGERkBLM0FCI2GRleRRiQeBaYJ9lqCyOVYEaqVhjj7H1tTq5B8wQTkFjtPrGGkU2MbAm9jca2NycpLFujezTPmFiCJkWWaha7O1DDlNwJFJorZtbCTzCXOc7tG96dVb/IY5Vm03uItCvcNfwvUEmCKFAC+OUKqtwagIJKLTIME7tKodLKw910eQFfIhSKnkN7A470dWEgIZNCzSMtiWF+cRAoQQINS3LbxmAULOTiJtVombqk9+C15L4B20x212CyfnwFqq+84kh+5YHunJiSaGQlYQA7uR8eBIdVtMiKVaMgZSyiIDBH/TFihA8Nf1cV3b4QSYwuIBhFrCpQhTUtUzU7+PM56AgpvczSWBW3olBAghQKhvVS4oQCDVW7NvsfW9NjBudUKz6ndQrLfdZtfraQU6o64HPKntKe+DZpI3s8ASRtHPVEhrSSrTrStt5NOjTD2+2IXiP9J2K/Jm48RRwWgQ/EkiBAj+5FVv7aUOEOp9j+VXLwQIIUCob9UuGEBgTnURGfnC4h9UzA4YbQcxBOZZJkYwSmTXwa4+wS1GLbI7buqxwDsqs0eWOgi6dkgOZHIkemriLKDIg1ZFQ2piEbQHZQSUt2NImS4/f6MlBAiNSm7pPVcOIIicTk4AzATkOALjbij/SVJuEn2Ktnrpvd3ijIiuByw0sopvFTEoCoyue1qytZgUF9IHIahDiW2JZexIlTh1qs1YkH4R5fp5zfsgkACkWCtG0mCERAJnQYbGvG6pBMleWOvTpLG0tLUxBzsvORQ50rGkUSbPckLQTVwzlhZoaIkBPZE08rksI5Fi1NUlYZ4eYPD+Joep1OQE87pe7EJgbNLqmHfUiAcQzkodBH/vN2Bm5mYJDPpdI7uuw9r/5455OykGPa7l3t5sgEB7QUTKThEike3eMCSYjpuPwisUzCcJKkSxuT41y1W+5IBpqv64nmsBBMrFQJwotQ7RSoefH1kG6QxYqa1GNAjl3qFi+F4DIbpBhfUGOaag5qJmmCNDbdEuDKTc+OBi3kaIvAkBFrsNEGiQQKFEXlrj5rkQRmOxKf6EqY2nOKlToKGYC6J/Qi4ykPlZ5sHWpaFt6LahZUZgEcn+rMLkW8ww6YEGMjGk0+lg4gvn8To0m0Q5rfngnKjUHQMIW2Twv/4xnn34VzDLpCGex1DLPrr5/Mvx+1/9fggQAhZsOYAQlbMzemGHnU1OrV7khwOB9gxh8az7LpN38fZdyTfBc1hs4KCYr5iZD0SBNDD1t1QPQKBcDEEdYvWPbLpmUIdVI337BUYLIaeF6KPSewc1FzOyOZYChPJI01UtUmgegQURBmMyFGCDyIk8UOHDX6jqWpi6aROdc0kiKZYLosjUSI7/B0Yjiw4QElFgVTKPTGqyLmfD2eFhQX8U9bZHM0oOoVmzMoNfvW1RPQIIN160Dnff+RNGCbwQZfPWLfjAh28LAULAwq4HIATc5fyaYyZINyTRT2Hq4xrsmH7aq1U3BAi1JBTs7yuZMYLtZW5rxx1AcJQuDGUqZ6crL1DPBGFD5gxmniCqY0rtPA0agjNRTIMGUuELcHgZ/ZmWKc7zZk96pfb72h2I+siSMBf4kYHuyBincNKA8lEQQHjP9Tt9UWr7GW+5uqRa3b59ewgQ5ivIWc8vK4DA7Prz01oQC+ZClBAgLISUp/sIAULj8uZ+7yOfdCgmn8wIBb4TGc0vQCiZCPrR0+wVcyVQFkaJM9AipJrix6DaEcaXsJiFeNY3dmnITDYza2Pwb0hkVJSLwrApSVAwhQDCJae24Mff+Toi0WhJ9oBg2i/XyomnbMMff/wTIUAIWMTLCSAwcDBLc8CUCUVio3o1BAsBEkKAEPBCrdFcCBAalzd3wwe+yJLScbDggGhJgzEQuF777sAIJHRLw00BCGmrDTkr+HwKMcVNBkURB3oxNLGSzbCvHZDMUegacb8vj0KamIyVRJaSA/lUyVZ7QwII521V0CVMIMLrcMqwJfqVEDFAVmuntXstTrv0rSFA8CvYWhvrLB4EclKc7YMQcJcNNcc82EvCm6aAgeMwngOWQZEFDblMhtUKc44LZgus2E0IEBqa5oYfCgFCw6IDd8MHvhTg8VB+IBGhgFZ+InCAQEf4qNED0/FPUVlNZKRpXN9lQBasYkgSj4JJCVV4FHSBhSpSwiPak4hidWP38tIeUBbIlmQEE1oMqiEgpxP1q8vZwHDdPFaEBxB6pAyOvvALqIVMw6tTVuLoWbMFHb1rMHr0IIb798M05mYDXbXxNFz7+58MAULDki7/YDUNghv2RdkGOEZfbJJjLls+LgumY7s5BcoVkafQSEqERCyGlKTIjfgh/wHbpkys1KbIQCG1QPXc4mZToL6pLiP5IoOmTc+5/i4sFNrNmcwKGQ08kMD6EogYrAZIaLKpoVkAwcvF4Nf2HZRXfbVQw0pjCsqZrtKM+pVFkJ+Q376rycJPW0HOw4IAhKiQQwsfvInBhMQSLtkBaT28xdGRAHoSKssVUC7cxk3x6vIzUESCaOeQzTR+EAa5KOtpS5ZFxFlIVNHmSu/DMtvxKBgc457IacWsj5Y/n6+gAIIoK3jD7/wN1p10Jjieh2noeOaX38djd38dljkzLDQECPXMuv86tQACO9g5HgInQrNUSILEolbo/23YLIsiHfRFyADLpvBpAYIgs6Petg2YtglJUFgd0zbYwS8KMiTerWM5FjSrwECEJMgMQNC/WbbB/k0WItBMFZYXLUPRgwZpDtycHQ6FadsEGtywQpGSMRUBArXHcQJri8Y2BSqWIUCoxYNQbfaDSuJE7ZRri/bIcgccHWSV+vZzIFZ7N7/hkv6/kuCeqHSw+30HlkfEmhti7Dn3lxsxzUNZTctCaBASQgpxPhu45q4Z/ge0Ua3usGDnh4tZ4DhIksRCLulvb7K8BSzyPMbHx8tOSHBLJ9iWGOcF5WKQJJb6dvY7eb3RRYxAQ0YXoOocch7vBLPtlh9TUABh06kX4Q2/91csV8Rvfv4dDBzYA1PXMHBwD+xZYaQhQAh2fXit1fZBoAyFFEFkskObDlzDonBokfQDLiBgAIHlhoZpUVZTF5Syg90qMA2AwMsQ6aB2TBiWxgChIkRZ4iNKzKTbGiReYm0TmKC+SKugiDH3YKesm7bOAAmBAIGI1WyHkTRRUiXSZtC/E5GZIBM3s/uGkhBBRIogp2VKtBRuyu5mlmZoEEKAUH7G/B6uzZz3Wm0fVwCB+S0UUxTXUkm3CuOI8oVa8vH1ezIvZKxWZO3a/gdFrqe62pclYE2CyI7KawQ8Ri3KGscLtPk5KOSDfbe6BhpgJTfMy83HwFcAQtSdx2RJoCGr88hoZHLhZ0SQBAIQOA5XvuPjOOnMK5CZHMG3Pv0+qLl0xTduBCCw9Su5bJdkv7aNynYVTuDAF1NAByj2Jd8UObHalImzqGniOAuKVGBWBFLu0y3f0E128ydzg8JHYHMUBs3BYAe2CxAkToJqud8IaRDokNct1Q1JBCBSHUFh/08AwdUWkFaBg1kEDZ4PipsRkcwRFkReLmoVbGhm3r2NFgGC65zIwbLcbIteFlCeMnWWmBjY/M/awEKA4C5Nv4drqEGY3yd9XAGEroSJ9pjJbpjEcFhglMgcVLplFnMNkLjIsalNGIVCFK0BFgII43Y3DCs4D3waHpkXovYILCPY8Qb46s1vqpgqmjZPpmEoAQ2zVX8ZVUB/SfbHIAACxwvYdvbVuPSWP2Ko5JG7vo6j+5+FaRoY6d/H1MylxS9AIHDQvTOCdRe0gHzSTM3GoQdSGN9nzLGniBEO6y9PoH1jZFFJaJo/6ZV6mHmbdjiCDW6xDBv7700jOzB/JlDXu4B5L0z5GngjquTL4P6eAN5M9ShnADxZFNgf0i64/C3kpMgrNZwQCfzQomhiCTUIrnBDE8PMRXbcAATaYFe36UjIlqtGKBYPGJDDm0nAwQRUi4OgjzNSpSALHVxKvBW6JTDnQaJfpj8UheFuDI311h4pQLEmfKUbrqcn2lZpbC51Nd2y5g6QsS3y7q1nyZUiaGB2LPK7kCRmckmpEobS0+mhO2IGzt2qoFEnRV6QcPYV78Tak3aB50X0rN7kHkaWgece+ike+umXYZkzwZtvgCAAW65vwcrtiSkx51MGXv7ZBDJHKJrHLbwI9J2nYN2ZbeCl5h4aleabreU64vsXwvt+9hhpbK8+lMLA4/mGv7cg1nk5GbFs6oQjLQcmfW8iB9IE1bJzNlt74B6MwTMphiaG8iup2WAviPU7dX6SOazMweX3HRbdB4GolrvkCSiCNZVrgNEHU+7Vopdx6UtnUqnAbfSyIiOemOYe9+Rq2OSR7zoQqiaBh+kwxXomMyLokLg8FJC9lDyq3XDH+RRqYczsguWQD4PFOCeIRIpIpSjfBfFQUB+xiMhuqUshYVY97+tmf2xH3pzOujkfgCAIEs58/Ttw5hVvZyBk8JXfYu8jP0M82YVj/S9h8NBe6Fp+ztD8AgReADbf0IKV26YBApkZtJwJSy9h6SVztQhEElLNg6UeefmpQ+rawoQOQ7dcwFikBp7TBv072dZ5DnJMRCSpMK3IQhQGEB5OYeCxxQUI7NAln4PZmyvJhuwLxJJYh0wWilGxWQCBohiqOfdV8pJvdhSDZ5Yttyab7aQYlLNjI9+T37lo9jywS0+FzaHiPDTipEgAoUMcZXkZvMKEQbdLjjYrN0kRVwQN2XS6LvphP5NAbZPNnPphN1rRPVxLAQp9iMRjcHBU9h3pQAc2AQSXRMqEzGuQQCyRJnifCaxUJ8pyHZQrXj8ib2F9F6Dl0yioS9+8QXtvxm5BnngUSl6sI9qYBkEQZey67BaceeU7IYoSTEPDL7//b3jh8buZw1u1W3QQAMHP2mt2XV01kR1XXc97nzH5dANu6YxAJGe8JpelBBAqgoQ6ZbBQ4ICNswkaBErWRLkYPAp6P4dxJRE1OwSxzqmZUa1auGQQt293fuZ3IfTOoEqHcbUwxKU2Fw2FORJA6BaPsZwMtUo5J6BazzT0ewImxQyKNDGkAqf/L5gi+ieVmipQwhaK6DB/ikomCi/XhMBTHgqTaQGIBEqGzkwH5bQNzFeC2Aqd6gyVySiH1a0qJsfHAlmgjciQdBsUMkp5Nli8eRXNie5EMGG1sZS/pYV8EM7d4s/EIIgSzrjkrTjj8lugRBMwdBW//sHnsPeJu+dELJR7r+MJIJi6hdTIzBs5gSMzZzJrnhCTauYNIDNVaw8lO6vj2tzIQik+s9QAgnf4sg2+3k2e8Tm43AoLVUKA0LikX4sAIQjA0qjEuRs/+CXf/fsBCH4GZjkUFWAHlmKaFlPWSSJjVE+DSmNsiQIrWzRQ+KjO2BNdvwb6W2ORVJVJhGjMHmjw8lB4ZgTNUZCqoD3wZONmgnRgqRNQC4sTEUHmggmzA5T2mQACaU4ogyczhYDi180p0KDTO1ltoPmaXRoBCH3rt+Gym/8IL+95EKdddBMe+skXsfex/53jjFhpLR0vAIEOjtSxHExi4mKnHWCpJvRxDWpKY3BNiouI98bAK8IM/5/ZslEiIpKdUd8aCD/f61IECH7Gv1h1Q4DQuORDgNC47Bp5kvvgX/6bo5nkUEiOheToR+C7OqMeAYQkn2ZpXUWHDhPXq3w+tnoLPMbMHmbxp9wNpSmm6XCig9fzc64X61Nbk1Z9aYzXdDqIiy5Ln0sIV9QXsMuIyzJIfyi0L1Wopb6lECtqh3G4MVKlaoVcNzZ0qMimxgPVHtD71zMnVI9ldLTmAqlpp0oCQSYkx4TqUCx6+eiRxgDCKXjD7/0tcpkJPPfQnXj+sbvgzIpUqCa/oABCVEpA5CRkjUkWn++e0WTbLq8po3A7ivmnGHyvuAyA7jP0LLEG0mIgul8K/SsNk6Dn6abLDn5BhqlZGB9KwaJ14wDqSAH6pMbi/G2ysRdt7cznIC6iZW2y4s2XrGBtK+NN1SIsGkCYvwa4kb2ysWfKbFYhQGhMlO62XH73DyoCgH3z9WqfqryG63Beft/3a2IIYjyNSpz7i7//rBslXPzo6KZcoGgA22XUI/BAUUIaiwCbCRy8w4Oc7ejWKRUd+9xU0HTjrN/Bj54Yt3rYTb10fkoPKOqH/B4IkBBoIBBBfVUCJ4oiwRDakNMFGBaFY1LGt+mD3xMaJVtak0xBLeRcp0v64/k3FNNKewszqwk4MhFsaCXP2+iVx2BbXsrsRqdz+jkyF+TsOEvF7clLZCBr7pwU7CjSVvvU/M6n90YAAmXl7O7byOLmxwZf8Z2/YT4AgQh71rWdCJFXsLnzVOwf28NYAdsiXYxkx3IM7D32KEONFHdPZD8MNMDGhrZtOLnnLByYeB4vjz2DtkgPdvVditHCUewfexZ5I4fTVlyApNKJiBjF04O/xNHMIXTF+iALCuPrjGoAACAASURBVDqivTg4sRe6pWHHigvQwnfj3me/j4n8KHOuU5/PIKdq4GIuTwVRCOsFE5PHClA4HuuvXgNOdEFKVIozoiDVzE1RHMdbFUSTjSdfq7UOFhog2GT+o4moALhnHx6NbKzzbWPm88XwSnJCprjLYgkBQq2VVfn3IUBoXHaNPMl97P/+tONRME4hntLQRQ842AQcXM4D4jtIq5TYqVyX7u2Z+E1FzkKrMMHAQq1CB3Is0cb4FKgP0mhoFtH9omyOgClwQupv3vUD8JwKPXDS1ko3KKXI5+5qAihijL2HySNvuDkIYgoQt+emap5yeiSnS5GAg4iMEcdYPvhNl/kzeO9RBD4EiDwNQD2agGkZk0YggYzV4m1JU3NCKbklTnPTclMsmANQwiuzgkag1rzN/n0lgMASLjHHTx68KMMytaqOh9USNDGCKo6fCnecD0CgdiJCFBEpgUs23IR7X/42dqx4HY6kXsakOoJz1lyFXx76ITa0n4LVLRuRUsfxamofMsYEtnefi8Hsqzh95QX4n31fZ0DjzFWXY0Idxsuje9Cffhkndu/ChvaTMaGO4MDY89CsPGvfsA2MZPvx0vhTiIhxXLTuegwMHcELR5/CYOpVwHTQ8ayG8WM5jMZ1GDKQT+vIvJqDYono7Uug/eoVgMhhfcdJ+N2L/hjjuVF8+RefQs5wSaWYmaGLiI6aUxYSIFiUJ2SWv0vpWymSBEUk6uTpGyblaNAMDUYZ2tnZEqFLQUSSIVKIy9RX40AzDOimUfNWSf1GRAmyNHNvMEwTmlkkjRJdTdRiAAS/t1Z3nFXIw2bd5BsBY9SHH98Pj/yq3GoOii7a75dSLfIgKA1CtbkoJ78g54K79ba/Yie6p1YXizfoKQpeOhw9VUlxUZDKfP+IxA7XaoUO8U5xuC6AQHG80VhsJq8Co0/nYBCfgimwPAFM1U88C5abLMn74Io/TR2EEcHEioTKIg7oYJ9S+ZQBP/TFTk6M11wbxGUwwRwOg9UglOvYBUDkB+Da/ykcUuRN8CxJjbvRVAINmhPBJGkEqpo2PCA3bVKqKYA6KpQDCMR3v2nH6zA+9Co6etdi58U3Yvc938IrLz5RtsVkWw82bDsPzz36M+akSLfn1s4+yEqM/bxpx4VItnXhge99Fr1rt0KOtuDyt/9p3cmaZoc5EmXvtu5zGIXvs0MP4vx11yKrTbI/W7pPw33772AahJWJDVjbugWPDdzD8gi0KF04a/Xr8dyxRzGYOYie2GrsWnU5dFvFo0fugm4WsL33dVjffjKyehrPHXsEOSPF2AKpnLXqCjw//Ci6Yquwpm0zXuk/gJ7katy151uwdAOdz2rgJ2xkVB2jRgHDY3lwuoOYKEBaGUXbVT0MIBDo2rXuYgxOvor+yQNTGoRITEKiYzoEtY7p81VlCiA8XijJpujtCbXsAG6GhnoK0xxUAQcRWUZEUso2RZtlXlNhzKLnLq1M4CChRCseVpppoKBrFR0faW+JR6IzwEVp+8QQmVMLcMiZ2bUqwSqQGaqet3fr5PN5HDp0CKY5fdmiPXrLli2Mj4T2T4pi8ErpwdHogVFpdNVC5fz0VS3iolLf5XIM+D1AqX4jfVcaUyVwwvbogIBU+TPCZYKdXaoRUFV6B4+iYPbvXYBQoVAeaLKieIcrLUiXWU/BgTElUIBAfVDbNFBa8HQQlDvUaagEDOjwI20A5QcgjQZpHujfWUZCB2iNOYg7w7DogyoBQF5oJEU5MM0Jx0HVNRRyc+PrZ4tFd2RMWF2BpcSuf3twa3qREgQcFF5jWhPmn8HY7dw/tiMgZbdDs8tvmH779Fu/HEBo716DN916O9Jjg7BNE3I0hnu/9Wmkx4dmNO+GMjo4+8p3oaP3BNz33/8vDC0PUVJw+iVvQUt7L6RIDCeccjZefOI+PHrXf+CN7/skDr7wBM64/G0NAQTSIGzrOQdj+SEMZg+xW1NvfC1T+5PPQGukkx3+ZIrY2LEDhyaeR97IsAyG27rPQ3/6AMYLg+xQJiB0cvdZ6In34Wj6FWZqOLHrDLREOpmfwlD6Vbww8jjLOUCF/BPchEQ2Tu09D1GuFU++9CCG0v3MxNCxR0Miy8MwLGiGiYODE8hrpDED4usSSFzWBYfIfyqUlq4o5EiwmU5Lu6IDbuCRPAaf0Jh5iEwwtF8QqCewZRJtMi8wemV6R0qKRImY2Fqm1eoQE6vJ6hC9spewieZAZhTPxIJowDAqvyNdXhLRWDHPI2CaFjRNByUko33EOzzS+WnTy2xxJSIx0MWI1QVQyKvsokGHrksn7yCnFWBW0ERIgsgAgld03QBpDiKKAqGY10EzdBSMAgSBWB+bDxD8frd+6h8PAKHSgehHDl7dagChkfbqfaYSv4RfgFDNX6IqQKg0UF6OY6jQyuz51Qqp/EmDQHZwv8UDJ/SFykXAQAmG6EB3Y5ZnUcBOUavy0MgtwTag5VNVw508AdczwbTppax2qHbzVLZ+ZeTWn3aIlDmdwQR9kcABjWY2QDAMDVf9X3+OgQPPIdHWDeI72H3ft9DevRo7L7oRkuwCGcsy8eLu+/HKi7vx9o99Ho/d/U3svOB6/Oxrf41cesx9VY7H9nPfgG3nX4cfff5jjA77hg/8fzj43OM44/WNAYTGZN6cp4gQafJojiUZohLNAcrLOuQJC5bJ4cDACAgd8L0yEsTu2F5Zk0XfCTkpUshjs4oHEIZ2G4zpkgAPHfRuKmdKvEQp0ynE2E2cRCCJnEAJMLgmJ8qhUGDAioEljrSFGgMX5FNB+Rp4ToRKYUTF4t2YvJuqIkqIKtNaknyeHI1dp85EIuZ+IY6DjOrmaphyQC5e36m9lmh86iZGc1BQVWb+isViUwc8aRDokKdCsiX/FK/ElAhkcRqM5Av0vANJEqEoLiAic0dWzYLjXZ+pZmsQmjXn7P2rkO0sFw1CCBCmV0hVgPCeD3/KoRA91+OeEQLXXltSAsNqS02AQDdeSvMscuQf4LIF1sOdUHUARW2Ap3EgrQPTOBSJmtjLEolPLgdddaMSgiiLrT0I4h0Woo3ZAEFTs5CUGKKxJK7+3b/CUz//HvY98wsQ94ESIZXoNNAz9Dx6Vm/BZbf8EX5+x2dwyc234cCzD+Pxe/6L3Tn71p+Ci276EJ68/w7se+oBplm48UOfwZGX9mD7BW9qSIOwEDLx00d2rAC1UJJ62AaiYzZiBw0cHklB2tECqU+hrEeVm3WAeIuCaGvwvjKlnboAIYehJyhdMvnQEIB3dQgmpWS2TKYxoIgOAgSkURB4iSVnomRLVEhTwxI68URmZjFQQIeMFw1C9T2AQN82HcSkNdAtk6nbSSMYV6ZBOwEEUunTIR6Luf9eChBEkVJEU//keO0e+MlonNWnQiAilyswrolYNDJ1GHoAgQ5HltQMPAyT0lVbiMoKlKLvAdM25Ck9tasRlSn7G6WytkzktBzIIZkRPDbZxOBnzfmtGwKEmRKr54LpV8b11F8QDQIxKTLfYBaWZ4Gc2ETegOi4REAU0jg7d4AttmJUTUz5ANT3Mq73PLOn8xoLW1Tg+ghUyk1QT7tenSmNA88jIksoaDp97X6aqFiXRkiUwgXLvZGEpbIEypkYovFWXPu+f8CRF5/Ekz+/A2aFRFhKNImL3/xBUP2hwy9i5OgBnH7xTfjpVz6Bk8+8AptPvxiP/PSr6D/wDNv0CSC88Q/+EfHWXsRa2o8LgEDvlR4pMIrl0sIRqyLdxGuQH9Hz0aiEeGfzk0t5GoRju3V2ALKQzmKhjBamqTLzHmkM7CIbpihILOSTY2mgwZw2KQqDAIEbIUImRAqdFhi4MEwVpskMnWUX3WwNAG3WqqpBpnTmoms2oLFl1cr8IjE5wrSUXikUyDTCTd3+Sab0PEsnXaYQYCGQ4RXDMEF/IhF5FsBQIYihicGTUyN+AEH5IIQahOmFXFWDQERJ3jFaLi2ye/N37dsK7xLnECtgzqqdZrn2QUpe7Q4SkoaYU9tJsHZ7zalhOhSCSWFvtfgPmtP/cmq1vJMixxwMdZ2c2aqDNsYNwIrrxEX5GSxLZ6m1qZDTYmkhmu2V63cwAKLrOvbs2cN+TYueNEs7duzA7bffjvvuu29KjVwuF8NSkjFzrJvUoWbdG65ncqg2Ru/bjRZDGxeCGHA6iqFQ08t/PvJlWZztyr4U5ANAav5yDlsEGMi8UE31Tbf9eCQ27YxdMlh6jrQHFMlQrVAERKRoLptdTzcMFAzyayCH24VxUpyPvGs9uxQ1CLXGPPv3IUDwARBmC4/R+9RhafA7KZXqt0gpxJANqrm62yGeAMqToHAa05QoxcRJszUaeTvOQgHDUlsCjfAg1G61eo35hDnOt+9mPm+ZNizdhlYwYOo2SiLwprolTb2oCJAjEgSZwnGb53Mw+10XMsyRLu9OGeZOb0xM9c8LrnNz8R/JqZBMAPXYxRmg5Civi+sczWipbAeGbTH/gXqKSBTvBGSLfh+c9zw5N1IEUhH7NstJMZmszBhLMqh0+y73bpXU1/XIoVydcnPgJ8SxVr+NZDysZ13U6pd+76dvz4HQT99+2q813mphmWXXAWkQqjVaTbtQazD1/J78FHqUCXDWAlMMc5QjoQeGQ8x33kjJBOISC5HWhJz+6OeclSxLK1zP+73W6oQAwd+Mux/swh3q/kY3/V2UD6da4GyOdGYzx+ilLq9pudFPRJJUqtFZDgDB78FXa101EyA0AmaY46yfONMqL+j3ACeg5qdvv+1Xm4vAAcLszoLWLpDpolMcmUqtXGuh1fo9mQFyTrzIHeCyLnpJlrxthRZUe1scqh2BafMoUEpoi2epoa0ik2MpaFg+G1It6TT/9yFAqC1julDmUoCuRWEZAsqqBqgZD7jO5zycL/5gLkIWBMmAEtEQb3WmIiMWUoNQW6rLp0YIENy5CkqDEAKE+td+0wHCTGxcTFM/T3OExFPuBcq3YEPmdfYz0Si7DpL+cjzknQQyJjEIukQsjCOgmLKZ0UFzBqKSjc7WCEyHfJHJxuvRO1M+CjdFNFEzM4Imy+VZIFKoucRM9U/MYtQkTSdpaKolmgp6XCFAqC5R4tsZPdYKTe8sIbKaRgASx2NdxwqcvHojYrLCwunGsyk8ffgljBeyUyRIlXqhljoiCZy6djO6ku0QOJ556z8/cACvjA3BKEYPVBtlTFSwqWcVtvSuY/wARDI0MHEMvx3cDxOvonNlFhTVtxgAgQH3ee43Qa/5qu2xb3BmjRAghADhuNUgVPoYvO82CN8F78Yv8pTCyWaAQeL1qZ+9/AvT2SHcUdWTWpk+1q64CdkadWl/yW5IYUtEmkR/BIrjLknYxDYjl6JZYwmbKFyLmB2nKaE94LCgG0+NzsiBe12nAwE6o65mgMcCI5SiLJVEXcvmLODN1gMIMX0QT/zqLuha801Hm7adiVv/8l8adlJ0HSNdQfj5cJmt2nEPgHqes0wHxwZaoeo9ZdXkEUHGzWddjotO3sXC+VxbOLVtYzKXwQ8f/zl+9fLTFA9QdvaJdOm89dvwlnNfj85E25Q9nsZGYYGPvvQMvvHIXVCtyg53PbFW/N5F1+PE1euZPd3jO7RtC4MTI/j8vd/BmPYMulbl2PhefTiFgcdmpqduxndAcqb8MC47aHmVihuq6KZvZvWZo2v9C5zdREuep/egkMl6ixsJNs1ux9TYblwGOJ5CPYv7VJOIkoL0QaCRNlu1HWoQ6ltZzZ6Hatoclu65vmHWX2tGgwG17hKcuDCEkg4RdwPvWGDaB2ITpA+ZczBmdlelGKZb9epWFXquSL7jSmdqyyEnJwpboknxEjbRQp7yei1+5e6+w2E4I2I8v7SiG2iI3S3AiqT5f9r7Dui4ruvaPb0PegdI9MICgp0Ui0RRhZJlS7KqZTvujhMXSbGdLNvJj3/Wl5P1/3KcOLbjGpdYtiNKltVNVYoiRYq9gQRIAiTROzCYPvPmvb/OeTMgygwwMxiQAPXuWl4WB/fdd+95972777nn7A2KoB77nIYXNAJSBHIINPgFmb6awA/pX5CnZDbAgQDC1qVW/O6XP0B/b2/8k2YWNdesvwH//p+/TAogWPTpWJa3gRn96H+doy2w6tNhNVBQqsS/kS4D6RtkGHM4/W7Q28Ope0X2Srj9Dhh0JnSMXgCFx+m0JhRYF6PT2cpUy1nmAqQbsjHqH8Kl7h709S2mZN+oo71r+SY8uPE2XpiJEfB04zmeY8uXVfH8c7hd+PbTP0IvEYBFKQWWTHzz3s8gy5bOC2NHZy/aOnpQv7QKNpuFF7ud776K50/ujeqJ0Ku1+OzWu7GpbhXPGeIDOH6yCfkFOagoLeY7tvV344nn/xO27GYYzNJVAwghgWwWO9WRsggioCpiGrIBeU98MdJqx5uQrqUshAgfQgQskveEmFbHEyNFsz1tNsjjQ89p/MJHqZHeAKWBUiaODBIUD4JsQQUgxPfRu+4Awvhhj4v/i88aCdYaDxzkl3p6aWWdRg6KDAXj29mOTWK1CpROxR8AAg8aDYOIzlETXP7p75ngkGZdPd0MlGSEMDo6goDfz14RAj1MZR32loxFe48DPCRmRSAhQLLfQfKUyP9Nv8V7vJJpDuJTdzfA5bp6WSl2ux0NDQ0JA4TCZTZe5El7wRMYZRXH5oGjyLcuQnFaJdMBu4IONPUdRra5ALnWRUz40zXaggFPN7Ys/iADiIDox7HuPfAJHizJXouyzCVo6j+CA+2vYEnuepRnLoPDO4A3jh3G5YEw1TAReqmIbpjy4kkWWoNv3vUp1BaV8fNvae3Aa2+9i67uAXzh0/ejsJCUTiU8d/BN7Dz6JtehZ8oLV3i3fG/DTbhvw3Zul+h+f/GbZxEMCFhUUoB7PriNr+l3DOHrf/g3BETiGpB33JGddrbJjn9++Muc8kd9Onz0DN7ee5hppf/68w+B1FEpbfCJZ3+GHv87SM8JoH2fE53veZg5UJ5T8iLObIpjvAERPwTRYqk5bVMWIpfHLl8j/ztSaAyRHfhMWgwWgxG6MJMhXU8siuMZJL0BH4suxSqTyZboevYGhN8NmeRIJnCKVqiezWQOk0TJ3iSqGukD/Zu0GEISgQT5b6kmSjIYDLBarQnLIU/3sUnVAh4BW7FsN+sPXhLejlSTGyViq0QDJBNpeyZbXrUYhJk6EuvvMR0KKfI0zNQvOp6waUahIUIoRIhPxoSsZ7p87O+ye1mNfiEXoRlASdyNpqAieUiq8yUEvQ643e4pLY5Ntoj2xSRPCaPVCV4SOXLcwwqYMljg4wqK1WARnYlHwlnmIO7fXomDhw+lYDTxNVFSXIKHHnwwYYBQsMyKPFspHln+OIa9/bg80oR+VydsxkyUpFXxzclz0Nx/GOWZyyGKAlqHz7Bcc5ujCdvKH4ArMAxPwIku5yXWbFhXfDvyrCXYdeF36He1ozp7JQwaEzQqPU419+Jcn+zRKcnMw5Kicgy7R3Gi/TwvvP94z+dRllvE9z105DRee3M/LBYzbt22AUvqKnjRPXDuJP7jjacYrN5Usxq0+LX0d6DHMYTPbrkb25at5euJLOg/fvx7fpTFRfl46L4d/N/DLge++vvvIRAKYVlRBXJs6eh3DuN0J4lNpeGJh78Ek97IqX27XtuHY8ebYLdb8OlP3AtLmJnw/z33K1wYeQPZBX507feg+1CQd8isxRD2UokIsSgVMSSq1VrmvyAgpVMbmAtAQ1FGzJxIImTycQqBLbIDAQUS0CLgQ7oV/kBsNz/FSJCWQqQQFwZpV0SYECOLk9Pjjno0Q8/CarKMcSAQOPB4vOysoPFG3hfSYiB9hWhFT0q0k9gcKVLdaDQw3TIV8uR5gp4502IggDBerCkVi3EixzPxvalzU2s6op9Yd+R5lsDxUyp7nuiCf636SWOekyOGVBoz3rYSwReR/QpUIoMEkj7WhTkQ5IDGSOZDtADJK3dySTa4OCBy/hSKPSjN8MI9OpzQCxCZtLQLjAhaqVjZU82BbuEtFQ9UBgUqCIIK/W4tRn1XPCgEENbXGDFil5BfUDCOSHnubJRpScONtauTAgjZlmLcVf1JDHq6MewbwIi3HxmmbD4aGPL0Qq814cLgCdgNGbxokWgTyT17BRc2FN8OrUqLfk83Btxd8AguLEqrgt2YjT5XO0707uFFrjxjGTKMeXjt2LsYcMjxB+TSJsphWlDdAS/vor92+8fQUFbDhuofGMbOP77KMuOPPHgHbFYLM/n99NWn8c7Fk7xwmXUGPurwBP0QRAFbKurxue33jR1RPPvCm3A63VhaW4716+q53ct9XfiHP/4niOmQKId1GvIKhLiNdIMF//TAXyObjigANDW34k8vvIW6mjJ88M4b2WtGLvt/fPqH8GoOwZohoIOplv3chpp1FmRZbxJnIkDFVMs0WyRSsA7KWgxqOc5Hplb2Q6chkSc1CzOR5yAYCsCgNY2BB6Jajrx1LMeskimRyXsyWYuBaI4jXgmL5QrVssvnYdBD9iYQTHXo32TH8VoMxJ3g9wW4faJqjogt0TEDHVXQt4M8cuy1oTFKEpM0TdBi8MjehqupxaAAhMS8uApAiO97fN0AhPiGO3MtypyIaEZQYKSOFBOJSZJ/p4+gHAdBktfErkgsi8mURII5SRDOZgwhKFCWhZyKGZIZsKeEq+k0gEHlhg5e5nTgPvNyLn9i9VSBdzTRaWMnjyWSQkQfRdqtTVbaHHDr0O+6YoMIQNBVZOO8fwA+QWYDTLQQ/S0tmrR4zlTK0vPw6VV3JAUQ5LNjOwKCrAlAMs4EAmgfSwsA/eYXPLxYUfwB7YZpt0y/07VGLbnjKZ6D1B99rEJICx0tfrLegIrr0N9dziB6uxdBRHQJ5rq8Ujy64yOwm608ZK9PloUmVUB60pf6O/HPz/0KLiG6Taw6E756x0dRXVjKCx9pFfj9QZjNMssgLXL/97lfommgPapJ6YDgjqUb8dCmHfysaTdNwkW00BEVMS167zYdx8/3PomcgjaQwjJpMXQd9LOHgDwB8tsh244Agk5jgCCRZDllQxAYMPDRDXkPImqNBBAYdEoEzEnOPcD9JRuroJkg1sRBxWoCE9S+yJ6U8UqKZDMxJC/8NG4Z0Epwej18nBPZbbKKZvgIZPzxQESLgQiTTEbDFapkvw8k+8ybizApE8UnyCBFDxM/Ixk8uz0erkd0zxEPAtUlLYa5UnNUAIICEGb6Tibzd9V9X/4prxyRyOhEFq5kbrhQr4kAB1poSUuCZKd8oauj7JiXBmSa/PyhG5O6lgBPQM5I8I6lYaogjEsDY40NiqBWSSwPbdEKKM7WY3B4FIFAdHdpPM8nonshqtRwCBnwha5IS0cAgqEiG6c83XAH5UUu3sIfVq0en1lzO++wf374Faa6laPBo5fKjEJ8Ye1dSQGEePuVinq0eAz2aOF0LYoaqEiLV0NhFR7ceCty7Bksg0yF3OYXetrw230vo8c9PG1XKI7go5vuQE1hGShwjzw/tHgPOEfw1P5dONp5flrPErER3lq3HrcsX490iy2SosFn6McuNeP3B56HydaK9GzyQSDsQaAgPNr9R2CoHHNAC7AcIyR3meYvgaxIvAGBBgJTLK/GdeTz+XDyNC/O5JkIsRZD9AWAbEZHDBSPEVmgaZGn8/+IVywQDMBD+aUxCgktkeBSpMjn0+RpkDtOwIIARixXL/WTtBgiIZT8norSmPeB2vDQEUU4UHGuYhCUI4b431LFgxCfrcYAwuTqCmCIz4BzXctiBEozRbhcDtndT6lnEcnrcQnW9NFh1QxRBgz+kBpOv1r2NPCXU43qfEAU3BgZGUno+CEyxvHgkdQ5RkNp8EoTBayyTfIRQzIAgdzH9XnluGfZFmSY5F30iNeNl5v243BXM4LEMBSlLBSAEFnAHL1qONwFEEVyv8sHXuOLQaWBVW/i3TGdx3uDAbiC/pjpjZNNolGpYNIaYNLKMQFBUYAr4OPAxHgK9cag0cKqM3LwJNEVewW63gl7WhfsWWO44apkMVCCkjiNFgOBA1J0jBbtTUcGbtJimGbgNF6Kuxgv2DQGFiQRHp+PbTBdIY8L9WHy+TIBW38gCD9pMZBq7hxpMSgeBMWDEM+7nWidmABBAQyJmjL19WlTVJMvwecZHQs4HIsVCKdeRuSuxyujjf9IsceBU4q0MGqBvoEBds1OX8Z/TqOnljkJHIhTBbsozXFDdeIAgRayraX1uGfpZpzoOo88ayafVbeN9GBVcQ1ePXcYr54/zGfbk8tCAgiRvhPWEYISBD9F3Cf2cUv9TJu+RXblGykLRoJ6nMz01SRKkrUYYnsSaAScnkyHaWEtBdJCEBLgMaA5SFkqcgBy+CiRgybjK3x8Eb5eBoPhoxaSnw6DgwhIvNpZDNONINHI9visMbtasfo0XV/jDf5LNIuARhJv2+NHneg18/E5xA0Qxg88Qv/Bhov37ZndfHlfXm3Sq1Bs98DhmN6tHJnAY/EC4ZRGTmsM52XTIuRwOPhcerbFLdrgCVnDu9+JrSULEAptmXh00/3Y3Xocr144jGJbFi+cbY5+3FhWj9ur1uEn7z2P1uGe6wIg8EIhyiyXEcf8bJ/LXF1PXg6KvaHMgAnfAekqazFwCuPCYlLkdMlJ+I8DJL2JkZR5PB5cvHhxwvtL73d1dTXHBRmNRs5iSAZsxtowJNNWquZgrD6lKqI/0cU40cU+8i1OxB6xgMu1fA5JAYTJg44EJilgIZHpMHNdrVpEhoayEYSw5LYUl/TvZBQbmdwzew5m7pNHtMEdAxzQ1ckABKveiG3lDdhcWo9fHv4zzg12wKjVsXvcEwygIrMAn1h9O052t2DXuUNw+D0TOrrQPAjE2+PoIxrvbIiCjhLmJxqez+ojRw9y9EViOFzmFrjSAp2jhykfZ37EY9GvvKMm+CKGoNH6odcNIT0XiaKneQAAIABJREFUCCtvXxOq5bi6P88rKQBh5gekAIQrNlrwAGHy41biF2Z+AeKtwYGGKgqJpGwESsmk/wU5u4IyK+SEwwiPQ7ytxlePCG3GF69ogktMm5aMKhmAsKqwCh9bdSuIya/HNYTvvbMTN1eshF6jwyvnDuJLG+9BSXoep/L9qXEv3r54csECBJ9bQl9vPoQQSfNOPb6xaA1YW1qH9VX1HINAZdTrwmsnD+DcQEfUI5bxxtBAhcrsImxfvgEZFhsv8HR+frjlNPa1nIZXmD5olHpE6Y7blqxFbWEZAxUK0usZGcCuk/vQ72lFbmE/9EaZAyNRqmXeuSWGduKbrNei1jgypURurwCEma2lAITrGCCMf/zyt0DeBSkehplfjHhqjMWKq0ieWgYOxN1AwEELop6WUzUj4CGeNmeq45VMcMYAB1ajBLteYLpmkzaE5WXmhIIUTToDNiyqxZ3VG/CTgy+gZaibc/RpcaPUstKMPHx+3V3Ye/kUdreegDvgSylAUHFkvRzbkIgLUz6rjl+LQQhI6OnIQSCUEdXc6QYrvrD9PiwpLmcug0iht8cXCOD1Ewfw1JHXY4IEAgd3Lt+Ee9ZuY9rg8W5Ryig413UZ39/1BzgCUwm0IveqzCrCX26/DwUZORPc1WQXisT/wa7fo3lgP/KLHFBpEtdikBkXo8e1zDQH593f+aOWeK8UgDCzzRSA8D4BCFPBwsyTI3qN6RLdZm7z/QBOJgIHUseUxa5IwVIDIqlJDjhMBw5sJqA4Q4IoUBomoNeIKMm3JQQQ6Ollme14fNP9aO5vw87Te7C6qIrz3d9rb8YHazdw+t8P9v8J3c5xGhrhxz6bIwabIQtrCrdxXj6l3F0ebkKaMQtpJlJblLUYWoZOYtQ/jBxzIdQqLXrdbdBrDFicvoSS+ZhZ8WTPPgRCPpSm1+H84AmEJJnaN8+6mGmah7y9ON/egb7+RVFT9ggMfXzDDtzWcINMFhQU8N6hkwySiORIq9Uwj8E/PfNTXBqZGodB9yrLLMA37v40p/1R31ta23GhtR3r1y5HRrqdf9vTeBg/e+e5qBkRJo0ej+14BMsXySySo6Mu7DtwHIsWFWJJTTlzZZGy5D/s/D4M6Y0wWUW07xtFR5hqOdpbGAn4i/z/eIAwHsCMB2YR4MUAd0KmzhXXw5VAwql3jVwTD9hLpC7d6UrESCT6d+Zvz+QaCkCY2WYKQHgfAoSZp8Xc1piNZ3N28ORae0+uUElr1TJwkD0OJKst8P9HGPQnK2QyOAgRs97UrZIMDgAh4IbH7eEdp9moQXlJVsIAgTkA8ivw8Iqb0eEYQJbFzlHpPaNDWJSey0cL73WcjSqakyxAIC2GYnsVtpTdDXdglAmQSIshy1KA0vRazs93BoZxpu8gci0lSDNm84LV7+5Er6sNN5bdC5d/FDZ9Gl4+/2tYdXbcWH4/WgZPwBVw4Gz/QSzN3YCStGqMeAfw9onTuDwgxxtQOwSAiM2P4gPoeOXv7/4MKvMJQADnL7ThzbffQ2d3Pz73yQ+jpDifF/jXTu7Hr959ievIZEbygR797aPrbsedq7Zw26TF8LNfPcN8F4tLCvDhu7fzNYOjI/jqH4hqWeDnRU+V7k/XE9Xydx7+CjMD0r8PHj6Ndw8cRygk4ktf+AiMRiI0kvAvf/ovtHt2IyPXj453Xeh6zwtKJ4x2dqDXGsPEUnoIYgBiSKZBJj4EIqRizQVIXIeYFomKmfgfgkIAIgRmVGROAqiYrCrCtqhRywyQRMU8vlB71G5ADDDxUqRQv8d7fCK/ExmTRqVFQPDJjI9jNONR/luiTAkt6N6BkJeDTJPzIFx9LYbpvqyJBuzN7Vdabj2ZLIZU9StWQGI8gHN8HxINbJyPzyElQYqpejDXczuzBRiztk0UdMQeBxbOIX1BYomUjyvY46ASWWNCPlaYCg6I3bEyl9L0XCzMFKE1txg1qK0sSBgg0PjovLsisxBby1ZgaV4p//tM72XsvXQSzYMdvJhGK8kCBNZisC7GR+r/himWSbWxx3mJqZJJi4HYAD1BJ5oHjqAsczmlHaB1qBFZ5nx0Oy/i5soHWYRJrzbgaPfbTCu8In8L3mj5H5RlLMH5weNcl7QYTFo7jjZ1oKVPZgsszynE0qIKjPrceK/lNI/tf939WZTnyaqJR46dwZ9f24s0uw23bNuA2poymcmw+Th++NbTfARzy5L17Plo7GxF53A/PrXpg7ilfj1fT1oM3//x73gBLi7Kw8P37+Dfh12j+Orv/5U5ERpKqlGQnoU+xzCOXG5CjtmO7zz0ZZgMRgYeu15/F0eOnkFGph2f/Njd47QYfo0Wx+vIyvejY78b3Qd9IEEjmfkwQi4UYqIkoqqmyUEeFfLGRDwIRJJEfyOgQHYOin7+u0atH2O0JGIhvdYM4nVgamZICAQJiGqhV+uZcZEAw/hCTI10P/obsVoS9XOEtZEWdlZVVGuY2ZFiWojlkRggg4KPnx9LwDPds0z8RNdSH6kOFQITFJNBYIdAxXwCCKkmSkr0m5PoAppo+9PVT3QxTjTwb7rUyETHnWhfk7FTon2KdQ8FICRj/QV4TSIAJaJVEYlikCH9xEFr1BKKbR54PC5eOCOFAEJdkgAh0oZOo8G9S7aAWP12Nr6NwAypmbMBCFmWQtxR+XFWZ/QKHgx7epBuzEamOR8O3wBTA5NXwaAxwqSzwaS1sKiTCBFrCm/GgKcLBo0Zx3ve4e6vLdrOwk+0wzw7cIgXzOqsVTBqLXj79HvoHyrgHTErg6o1vDPmwEEJ+NK2B7Chtp6vGRp24JnnXuc6D953G6wWM+/Sv/fif+NY13ne6Ro0sq4B0VnTYtxQWIlH7/woiBmQ6r7y6l709w9j1YpaNKyo5f41tl/Av7z0a/YakJ2JrZIWPGrDpjPhf937ORRl5XHdCy1tID2HJbXl2HHrZibqIkZFOmIQzcdhsYdYzbHroJe9DONOA8YYEQkECCE/8wvQjp+Ax5gHQWtkDQYavD9ER1REnWzgnT994GjxJyltFaWC8kIvyNoNar38bzEMOsZNTvIeyIAjAKPWxCRRoiQwWCCbEeMj2YynNN2D9CEIbIT8TIktgxTZJkSVTffQaWSqamZ95LgD2fOiAISJ34RULUrJfF4TXXQVgBCflRWAEJ+dlFpRLKBT++UjCtBuS453SDNKqKvMT8qDMGEnqNby7ow47GcqswEItNDQok8LCu0OaadLHoExLQZyP4d8/HfWYgjTA9POlMSbSOKZFjXa7VI8Ai028sIScbmr2OUdEgPweAT0dBUhFIVgisZYZM3CV+/6C+RlZMkBmn5Zx8Jg0LOH4VjrWfzwzafgj2ETo0aHz2y9Gxuq63kRJEVBOmogVUH6gI64nXjijz9Fp2soqknpnpvKl+NT2+5h6mH64Pv8AY5/IAEvehYvHNqNF049j7yiHmh0QMc+F7rYgxBdTpmPAiRhzGUc8SDQLp28BZEdOOk2kM10tFPnzAlZ2VHDQk6QaZvDIIGWZ3o+tKuXbX1ljlw5YvDzYs7HJ0w3Tkc6evYIEMAgUEtggwq1I3sZKONUC1Cb0pVnKWty0JGGfB963jQn+Jw8qSDFuTliUDwIM30prvxdAQjx2UoBCPHZSak1owXkdMwMYxDrqk1TAAItPhaDkRUIi+zZaBnsYvpfch8T212eJR02owmtQz1jbuqZ6G2pS9RuZUYB/nIBaDHQRtcxpMbwcBFEaapgE42FCKPuWb0NhZk5vCjTAkdaFBe62/D8sT1wBqcXryIvwG3LNmBpSQUv8rRgkh17hvvx7MG30OkamDbLkBbfFYUVuIXSJK12JtoKCSEWzaLjjf2tB5CW2Q5LuqybkHCa41XIYpgp8HC6AMeZpnnkCIU9cklnMSgAYSY7J/p3xYMwN94cBSAkOhOV+tNaIMMUwPpJVMv51gzOyb+5rIFT9IhGeefJ3byr21y6HG+3HkdVdjHHHfz4vReYcrkoLRt/OPmWLGUcoh0dqQXSXlLeskUol6uzirAsezE2Llo678WaqN+0qHpGgZGRDAhBc3iRmUiURGffOjrPD+9OQ0QZLJI4UvxhtnQ8w8TDKjnJOEju/UigSBxzWO4DJU7KYk8h8hBpRpGeOQKTLRzSmgxAoGBBOfBlwRc6WZvMkhjPoBaKWFM8YxlfRzliiM9iiYKZ+FpVAEIydlKuucoWmAwQiAlxSe4ibCpdjnxrJnrdQ7gw0Il3Lzdic+kydtmf6mnB8vwKlKTn4n9OvokP1t2AtqFenOhtwUcbbsH+tkY09Xfgw0s3Id1kZQKlNy4cxeneS8izpuOR5TejyJa9IABC5HGQ2h8Hf8rCgfO7EC5RUxDpRA6DZDwI83ugV6d31wIgzNdFKdF+pSrSn+6byL1TFaSYyD1nMxsTBWux+qV4EGbzFJRrp1ggmgdhSc5iPFR/E3rcQ6wyeLavDbsuHIZNb8Taolr2EtxevRa/ObILF0d6kGNNQ31uOYvurCyswo8PPAevEGBNhkJ7FnKtmTjQ1oh9lxt5ba3JLMJn13zgqgOEkDCT6NXCmSAkwpToxysugBC/02PhGGuWPQ2JKogU/jCtbSbOrZm0GCJqjok+Q9mrNfcPKdo9IjoxiZgzFXTxM90vVfZI9Fmk6r7TjS/aPaif9CyiFQUgzDRblL8nZIHJAMEvhvDX6z6E4z0XUJ1djMaeS9haXo//OvwKjFo9bq1YjYK0LOY5ONPfxmlpDXnluKliJQQphF8d3YURr4tTzggcEMBYX1KH1uFuHGg7g/q8CtxctgKFtqyrChCEALnsRZBgzkIvFIQnBEQYzHIqX7yFAcJeBzqJKGnSGiMIagghmcNAKRMtMCE7KIpxVJIETcjNoZiRogAE2RIKQJjd25QwQLj/Kz8NC5vKN34/MA7OzsTK1dNZYOoRgx9mnZEX+xX5FTg/2MHR8D4hyOyJtPATACAPARWtWoN8WwZTLA95XeFsAFnKl0AApeYVWLNYs6F1qBsZJisq0wrwYP22qw4Q1Br1BPnjBTszJMDvFWAwyZkj8Rb6cLTucaL7PfeE3TDxBwUFM0TOP1BK4haQoA15oBpH9KQABAUgJD6Ppl6RFECIduMIdlUAQyoey/unjWhHDJHRyzS1s3dnypHkV1qaTZojRfkTR4FM2AN4hVH2DEwuZr0dZq0tnA6pQZ+jEwQQKAWwLmc9cq1EcCQx4dKp3v2cPZBvLcOAtwv+oItZGDOMuUzj3DnaynTNRNu8KK0Gw75eOH1DzK0wvhh1FuSaitHpbJnCGDilfzoryjOWo91xDg7/VDrqyfW1Kh2K7ZXocl3kfP6AV4A+CYDQ8rYXl/ZdSWOU76MAg9m98QpAiGU/xYMwy5kV5Thp2iMG8iDEc0sFMMRjJaXOdABhrqwzG4BAJDhVmStQlVWPM70H0e68wOQ4lPdOhdzvAdGPAmspSuxV6HJehF/womvkMnsPDHojbq94BPm2Ur6mx3kZb17cibL0JajIXAZP0IUjXW+hyF6BVQU3MnUw0TC/0vxrhFQibijewWyBr154klkbI4U4Fm6v+ChO9OxFr6cdxbYKJnA61bcfpWl18Alu9LguoyKjHpJKROvwGWwsuQN9rjY0DRxGsb0aOZYipnu2GTJQYCvD2b6DKLSXM+FTRcZybrPL2YqXzv8aHpc7SYDgCwOEuXq678d2FYCgAIS5mfcp8yBM170IolAUGufmIS7kVhcaQKAFm3beVVkNONHzDgY9Pcgw5aLAupgfAxEhnR86jkxTHpbmbkRA8KJp4Ag6hlrGPAhrC29DTc5KeIMuDHn7sOfSs6jMWoGa7DXMVPjK+d+gJns1luauZ4IdAhgHO17DgLcb20rvgcM3goOdu5j0J1KKbOWozVmLPZefRaYpHzeUfAAtQ6cx7OvDPXWfQ5+7A/suvYhbqx7BiK8fhzpfx2J7LUZ8fVxnTdF2BiyNvQdRnrkUx7vfZmrh+5Z+kfvp9bmZDMgnunGg/RX0DHUoAGHevHgKQIj1KKItcDMF90ULFpzumpnai3eaXBdBivF6EOIFDFRPOZaIdwpdf/UWGkCgJ2DUWrFp0QfgDpLA0mE4/cQ0eOUwno4cyINAgk1Ng4eZh9/v848BhK2l92FxejWz//W62vHO5eexqmAbM/YRPfDBzteQb12MJTnrYNHb+fqDHa+yDgTJEOVYCtHtvIzmgcPwh2QiJJs+A9srHsLui89Ap9GjJmsV3ut4FWa9DTuqPo62kWZcHG7EvXVfQLfrEt5oeQoNhTcyJTSN4YaSO5k6+EDHLizJXcdqkmf6DmBb+YPoc7bhaPceWLQ2bFi8A7vOP4nR0REFIMyb1zF5gDDdEObbghUztS7BFEQaM7GGJpIpkaq0xWSmzHx7Drxmj+dJDw+KU0FTARAmG2n8mUWs8wsFRCQzteb/NRGAoC/PxjFHG7xBmc52LktlZhG+eMM9swhSJBpeHb8kdLwQLQaBaHqpDnkUKNaAshgoBkGjVSPPspgXcdIQCIQC7IWgoEqzLo2PAmjRp/gDcvUPeXughoYjKOhIgQAESUcTUPALnrHICvo3CUaRJkRj736mFqa+UR/1apmFkSic1xTdgnfbX+Jr5TEQc2IQBrWRYxrov+l3EigizwVRGZNQEVEXryjYyjELpEzp8wRgMBHNcfxPio4zW95Wjhjit1i8NQkguKEaFwsTb5CiAhAmWiBWKqUCECba6aoChPhfg3hrXoV6cUViXIV+LPBbMECoMqBxtAMHjh5mZD/XZU1dPb779W/PAiAk3sOAT5ABAslazlVRUbifOipg4VuqZHVBljxOYv5SICWBIQIrAY8Ag4UARvyD4SyGtz24tJekleO/Tqk5gwUofXYSUYICEKa3meJBmN1bNS8BwuyGlNqrU/p9S2ljqR3nXLdGAOFDmxfhuRefRzA4s9BSKvpTU12Dxx999KoCBBId8rqCDBKSWp1TMfBUtSEBWoMaWl10spRYtyFQcHG3A+17pvIgpKpr7992Jn5EFICgAIS5fBcUgDCX1p2DtlOGMVLWUHyDJIDwyQ81wO+f+6OFSI+sViuWL18eN0BQaYDKO20obLCyciBvxqdxBMhEIUkq88RntgVZi0DShddG0H3Qq3gQ5vgJKgBBAQhzOcUUgDCX1n0ftB0vziCAcOPSNDz/86dhMNHZegI+6yTtWLu8Do//09/GDRDoNqZMDdLKSRBJDY0ZDBbMGVOZBMWQhN5GN0Y7AgBpJyglbAGJWe2GzwkIOK8fyun5+nhnCxASDYwjO0wXzZ9Me/HaNlGdBGo3lUcM0fqZqswG3owkco4XedtinOEl01ZCz2EughTj7YBS7/qzQLopgA2VBpR1ZsLmNwNEqzfHxVyahvJPrEwIIIzvEnkPLIVa1N2bDnOGfuxPYkhE1zE3Lr3uQigw9+OYYzMpzS9gC8wEEIxGIywWy7QjTJXQkZpVVee2JEqIFGtssTQGEu09tR+rT8ks0rH4CBLpVzJAKpH2Gcw8EKZaTvRCpb5igWgWiACEyt5sDL/QheCIL25DqdQqqLVqhIIhaAxaPtoPBQRoDBqIARHk0o5Wsm4owsYffihpgMBtqgBThhrp1XpZYRGA4JMwdDaAUFABB3E/RKXinFjg/QYQUhXcnEqAEKtPyQCmBQUQos1o5ZM4J+/5dd9o0gBBBZTcXoWaT6/B/r99BVt/eDcDgncfewHrvrMDZ378Hrreap07gHDdPxllgAvZAgpASO7pKQAhObtFrlI98OhPpHjOVhXAMDtDv1+uThYgkPeg7L5laPj7bRg51YvMhgLODhg62YuMJbk49K1daHupOWUAQaNXcRwCHQeGBAm+IREUbzClqAC9WQ2Dfe7dqgt9jrCWxXAIIb/ytUj1s1QAQnIWVQBCcnabCBAmtxFnMJbyGZid8a/Hq5MFCFCrUP7hpVj9f26bYhbyJLz3tZfQ/vK5lAAElUaF8h0WFK60ycRAIQmdx0fRvtuLoOfKrCbwYF+sRcUOOyzZhoRIhK7HZzvjmESg+4QbLS87Yx4HzdiGUiGqBRSAkNzEUABCcnabHiBEa1MBDbOz9Pvk6qQBAgBrSRq2/uI+WBalT7DWyJk+7PvSc/B0XREzGl8h0RgEtQaouteOgmXWsWZIBqHvnBMDTQFIFJBIngO7GsXrbDBnTs1uSORxqiQNdKIZWtGAZD5YxHoYVHshwANJPb9heX+zF2d3jkAU5nc/E3l+86Hu+wkgTBcQmOizSOZ9i7r8SVJM0rfrOwaBjhiSLXGChnibT74j8d5BqTfXFpgNQKBjhspH6tHwre04/5vDMGVZUPyBWhz46ktof+VcTD6iVAAEsgu5yMcHQnKU8GxOFiTAImbjA9Ufh/nCIApv2AKNwZDwI/D19WHg8nkM5ajw8oXfIqh1JdzG1bqgv8mLs08rACHV9o4HINhsNk5NTFVKXqrSHBNtJ5n+xwIC02VDJJJ9MF2fYgGERDMxppszqcpASbQdOQYhlSXFoCGVXUu2rdQaKNleLIzrZgsQ6v5yLZZ+ZRN2f+wPsJSkY80Tt+Po/34drTtPzxlAIK4Go87Kugkk70wKjHqNCVqNAb6gE0ExyL+T9gEJLRE1MV1DUtHyR0Yl6yhIIv9O15Fugl6w4pNrvoHCtBL0vbsPues3QlBrWKeBPh7kGRCCIZhMBoiixLTN9LERBKJx1kCtUjEbpaOtDRgdQeaKFWjsOIynmv4dkvrqsFQmOusUgJCoxeKrf60AQiqi7WXwPfUrmsgCPZ2VqJ3pFum5vDf1a64BQizQl4z9rj1AiG++x1/rOgQc8Q8+vprzCcDMCiBoVFj9jzej7MEVGDzWBY1Ri/TaHJz5wbs48+ODkKIFEQJI3oNgQ465kGWY04xZcAZG0DrUiDRjDtKNWVCrNCx2dH7wOLLNhViWtx4tQ6fQPHAMaYYsrC7aBoPWzKDgSOcbuDB8EsW2KpRmLMHhztexIuMm3Ln8Y/IHRBThCwTx3Eu7sWJpNZrPX0JP/yBqq0rRsKIW+949hhX11cjLzcbbe4+gqnIRCvOz8acX3oLb7UFdTRnWra1HMBTEd//8NbgM3fFNjqtcSwEIc2NwBSDEtqsCEOKfcwkDhPsfkz0Iirpi/EaeUFMBMBPMQQBhfaUByfAgaPQabN/5CNJqcia02bOnFfu+9ALEQHThp+QBghVqlRa1WauRZcmDIIZwqPM1pBuzUZJWi7qcVTjVux+tQ6exsmArStKrMeofwonuvazqSBLRRq2J2zje/Q4uO87i1spH8PbFZzHiGcAdiz+FTTW3j43F4/Hiez94EgX52Uwg1dndh+XLqrD9pvV48aXd2LB+BYqL8/Hin/dg2ZIqFBfm4Oe/fharG+rQ0d2HB+65DRJE/OzNJ9AunUpyws7tZQpAmBv7KgBBAQiTLXBVPAgPhgFC1F3ofNqazs17d/23epUBDFEtr0sGIKgAc4ENN//uYejTTROei6/PhTce+T38g96oxwyzAQg6tR41OauxNHcjmvoOoWngMLLMhSi0laM4vRJn+w6hY/Q8sk0FWJa3ER2OC2gaPIJsUyFWFm6FRZ/GiovnB0/gWPdu1OasYW/E0Y7d2Fz4YdxYc9cYtarH68Ovn3weqxuWoKnpInoHBnDT5jVYUleBPz73BiorFmHZkgrsen0/CvJzsLSuHP/zzC7k5WVBq9Xirh1bIUohfH/X32NA2zIv5+6CAAizCiy5Nmb3uD24eLGFj58iheZEZXUN9Ho9dEYbDGn5/Cc6AktFoSOzaAy/qVqYZMbh1NCXkzIptUSfO2NoFGpSOAU57mgMc3e8Qfe4ro8YIgAh2oSaYNbUzLlUzFuljWtpgRkAR7IAwZhnwdK/2gBjpnlMQGlsmJIEX78Lp39wAP5h75TRJwsQCpfZkGUuQIYpF+2O8yhJq4I36EKX8xJK02t5Mb7saA7HJehRkbkMRq0F3c5WhCSR6xu1ZgiigH53J9pGmvh7tyitBsPefphC6fjUhm/AarRzn4mJra2jB5npaRh1ujDicGJkZBRL6yrR2z+I/oFh1NWUY3jYgd6+IdRUl8Ln86OtvQcNK2pgtZjRP9qNH+3/FoKa+RmoON8BgqjSQlQbU7YwXa1X0etx4XLLWQjB4BWAoNOivLYBep0e3qx6XCz7MERaKFP2rU5ZQ3NuJonQBiUfSQLKBg+gYnSPAhCiWD3hI4bpAIICGuZ8Xl93N8gwBpPyIOjsBhTfWgl1DMlh0S+gfdd5CJ4rH8iI8ZIFCOPTHJN9ELSbopeO4hCm7NwkNZbZt+CO5R+B1ZjGnoRk9kuymKSIYVc/nj76E3QEz6Rq45XssGNeN+8BglqPEAOE+Vt4Jzypez4CCBfOQBDGAQStFhV1K6HV6RHIXY0LlQ8zQJhcaANNh3OBq+xNnNAP7kT8tOtTBiGKUOmMkEiKdZpCb2Hp0FEs731afiNjiByl8ulH86ik8r6xPDbJ3CPRa1SJAoRYhh2b0AsHdKZyjihthS2QbgpifUX0GAQiKFJRBL8QktG+WgWoASmcM6/WqfnDKAmiDBTCX0opJIsjcJAiXaJVg4iViOCIBJWyNxdjw/c/GLcWQzQehDl7gJIKVjEbVTkNsBvSodNcEYOK555kD/JQDLg60TrcCK96eN6CAxpPX5MHTU875i0PgjiPAQJtgo0aclnLin/jRf/cTifONZ+Z5EHQYcnyBhj0BpQuXYuNd34Caprc4wqBVo/Hh0GnH3u61dg7oEZAmk3ubjyzNkod/yhUOjN4p59EYa+IdwiSJXvM+2NUq6BX82cAvpDEIIhAQdnQMSzt3QmVFFtlNNGFMokux7wk0SOa6XgWUpVKGa0dnoOpAgiJGnBOcMScNJroyN7f9WMBBK1Ji4qH65FRl4u2V5rRvfcyCjYt4oDEc785BktRGqo+1sBLNGHdAAAOqUlEQVTGa3nqJKoeaYAx24LAsAd9hzqg1qtx8Zkz0Jh1aPj6Vugsegw39aNn3yVUfXoVcreVzU+AEJ4O8kYm2t4w/vky9mlN7hsb/41mUVMBCMkZj5Z1u0kNnVaFkNcLrdk8oSGn04nGxkae45Gi0+mwatUqGAwG3HjjjXjssceiEnE5mprgaD4Ly0078I2dLfivFg1CYV8WTSWNjLXHvBba8Pwa/xvVIVgR0S2jf5N22vhPLmF2KhFNtUg7TFbqHoRozuK/Uzt0HZ8KhNuI/KZXk0eOvB1RPuYBJ6CjI0gNqmxa3F1jRWWOHg6PiNcvuLG72wtBVABCMjNw3gGEZAZxLa7hHe0c3Dh154Rz0LlZNBkLIJTcVon6v7sJjd/fi6Jbq3HsO2+xCFNaTTb2fP6PWHRnDXLWFmP0/ACnOA4c78b6f9mBY//8FrJXFiGrPh/7v/YKDJkm3LLzEZz+170YPN2L8vuXoeieWkCrmtcAIR6TCoEQK0cG/QJCghiFpEn+eOr0Gmj1auiM2gm7zHjuMdd1FhJA0KjlXTqFt4VECaE43dHa8HXBcWm39ButufReB4nTIlwnAgupLqski2NiofwoDDRvQxLMOhWs5D6gQv0IH13x9SoV4gEIjz76KAOEyLEXH32pyGMXQHtbFwwkB22wYvu/N+Os30ivDBoydVhTZMKZXj+ODwbgDwE3FxlRYNfiqWYXXCEJBrUK67P1KEzT4tkWN/wicGexCacGAmj3yZlFOjWwNd8InyDhYL+fHXz3llsZfBSmabDrZDvOCnb+mG7JM6JlNIjqdB2ODwRh1gBFFi3cgoi762w4N+DHUxc80BLfSBi8kJNRFXBC0pmRodPhW1uz8MpZJ2pz9TjV7cPmMgvebPXgvX6f4kFI4iVXAEISRltIl8wXIBMLIJB3oPiWKux77AXo0www59uw4Xt3wdflRN/RDlz60xnUP74Z1sUZOPrt1zDcPIjNP74bh765CwVbypCzqpABgjHLhFv/+HE4mvvRvuschk71YOlXNyGtPm/BAgRibxwd8kHwCvHopvG0pIWIPp7WLCP0ptlRQadyni8UgEC7Wq2GyK5UDBC8QZEBglmn5t00lYAg8kJPdXi3zIs/EWapoVEDvqB4Zbcc3j6bdGpui+rT4kjHaHRa5vaLDAaovaBApFgq+IMiLAYN/IKINLMamknud58vADVdr9NieGQETWfPchaDvPDT7zosW7YcWp0Ot2y/Gbft+BC8vgBWLKvCpbZunLtwiTNmXC4P3txzCKtX1GHtuno8+L3DeHbABoNKhS+uTEN1ngEvnRlFY38Al70hrMjQ4+cPF+Ljv+3ABVcIH62z4p7ldh5/n0vAt1/vx2MbM7HzlBOHh/y86N9YaMQ3b8nBsXYvdp9348xgAF/fkgWTXoU0kwZ/PHAJf+42wqABvrgug+27vsyMnccccAdElGfqUJFrgM2oxnffGsTRAR+e2JqGxVkGPHtsCE+2hoAwQCi36HFjqRk2vRpf3paF3efceOWME0sKjHji3UEFICTxQisAIQmjKZckboE0Y/QYBHt5Brb+8gEMHe+CId0EZ9swrMVpGG7sQ+6GRXCc64e50A5jjgVdb1xA86+PYfOPPoRD33qVAULR9go0/fwQ/CNebPrBPTj9/b0YvTCExXfVImtTCfS55gUJEIhB0dHj5h3s+MKUz7TAzHRmK0qwZppgtM4PkLCQAALZlhZ0cksLdIYtSQwGjDoVgiHwAs6aHFp58aZnRIu5QUNHAfKJkZ88PiF5p0vFqtcwcBAkCVa9mn93+ScCCbNeBU9A4vYIIAiiCKtxKkDw+/0cs6PVaDAwOITz586NC1KUgUNd3VLYbFasW7cO9qwy5OZkobgoF0eOnUFZaTH0eh06OnqQn5uNgrxsrFm7HH/xo2P4XacZeXo1Ht+YgfpiI5p7A/juO4PoD0j4wko7NpSa8fZ5F3562gmrVoV/3JKFZ06M4sYKC35x3IGvbsrAM6edWJptQL9bYG/C1zdnYm+LF6f6fBjwifjWTdlYlKmFUavCu42d+PlZNXQqFb5xUzZeaHTgpgornjrlxJIcPfJtWvS5g8gxa/GT4w72XDxcYcDf3JyLj/22HWc9VzwIpWYdtpVZUJqhw6duyMChS148c8yB8hwDntivAITEv9pyOujkck1jEJIZhHLN/LcAZTGsjRKkSJPNssgOvc0Ad48LGr0aIX8IIXcQxnwrpy9aC2mXIsF5ibj8Q+xl8Pa5obXoYMySz2T9Dh/0dgPvzMRgCIFhH/JvK0P9N7ctSIAw3EXgYNzLKUoIjATgGfCyjUw5Jo67mBYniEBarhm6iIv6Gk6ThZLFQOs57ei1WhXv7iOnCwQEjHo13ORrDxcCEWR/8gxQPQII5B3wCPJzI+eBXEcFjUqCK7z4y7+r2O0uSgRG5CMNb1Biam0qljCgsBtV0JOfflwJBIIICgIMeh1GHA6ca25GMBjk+4iSBL1Oh6XLlsNus+KGTZtRWFQLXyCAW27egJf//A78gQBWrqhD49kWUFvbtq5F3ZIa3P7d49jrtPCdGtJ1+Mb2bAy5Rfz3MQfyzBqsKTbit8dH8ImVGTjR7UWmSQu7ScMelXy7Fv+wexAfqbXgpkorREh44q1BbCgywq5X8y6eQNZzp0dx1xIbekcFuPwhtLb34tl+I/L1anxjSxbsZg1sRhVePOWENyRhe6UVOTYNep0CnjzqwDu9fo5VSNcCQ2Hqh8gRQ7Zeh7/bnIkXzjixcZEJ+y97sWGxCYc6fByHwEGKPTuhovOcGGVG4D2H71Ci1MnTBSnGCrZMNAgzZvrjQ4//hLOz5uKcfQ5trDQ9Ty0QCyDMZXevZZrjbMZFOgyOHs/YsULILcA/5IXgC0GgBUoFaLRq6NMNMGQYoNbHTvHS6DRIzzXN7HGYTYfjuHahAAQaSqyQUVrYJzl0JoxcVt+YGEsQh2miVgmHJUCrkpBu1U45ZohcFE8Mwle+QjEIsp5HZEcYiUegdigZ6Mm9nfjiLic8vPzK47BrKRtAhZGgBLNWHrtLkNhzoKUEXgJDooh8vYYX896AyADJrFaBhE8DogSKwZBBFqX8ymmVEbiz2KTBqKMf/bpMvqdJq2aAw5mP5LVhYCXX90sSCHdFW9q1ficEvRykWGPV4C9WpiHdrGVPzFsXXHjhkpfbkwHCU6S8FvOxpErlMZnnTnwo0RbkWEAgUbXIVKphqhggxChxxuwkYyPlmuvUAgsNIGjUOph1VmZG7Pd0wiu4IYpCWKxJD3/ICyHkZ6EmtVqLdEM2iu0VONm7Dzq1biwU2yO4or70GpUWi9Jq0etukwWdIMltqdRwD/kxPDoMkT5kgoiR5hG5jXCAGx0zhEISnIM+GNL0KFyZM5VEKjyPKCYhvcDCgOJaloUEEK6lnaLdW6eWYNarp3gSqK7L6UJj42n2IEQKxSA0NKyEwWjAxk1b8Pm/+vLULAaJFnwJDk8QP3ytDb9rFtEbovORq1kkwDMEmDLGQEOid6elXuV3QDKkUWAHX04pjjJ/opz1IJ/KKQDhqgGEqA9R8TYkOrffV/UXGkAgFcfluTegLKMOva4OtI00Iyj6UJ29moGDO+DAgY4/I8dcjDRjNgqsixEQ/WjsO4CV+VvQPHCUKZj3XH6OF/c8SwlGAyMc0Tbo7UZpeh2qslfyzqq5/xgc/gGUpS9Bga0UzhEP3j73IgZdPVAHAf0hF7rdToQytVDpVfA6Axjp9EDllFBUlYb0zbnsIajMqcfqsk0Ycg/gjTPPICTJ7nBbphEG87WNRVAAwuxe9wj78GSY53FPJUrSMFGSzIMQyluJgdoHpxAJcVZFSIQfKgyHtAheK7IkKQR10J+06A+DaALk2ulJrgggLB46hmU9T03Lg6B4EOKbp9N6EOJrIlxLAQ4Jmet6rbzQAIJWrceKvM0otJejx3UZJ3rewarCbbAbMtDmOI90Yw6aB45gxNsHk86KW8ofwv6OXbxvqc1Zi/1tL+Km8gfwXvsuiJKA6qyVMOls6BxtQftoMwrtFRBCQTQUbMbu1mfhE1zIMOdjWc56NJ4/DodvGD2jHdAEgdwjAbgcfvRLfgyFfHBQHIJLhFWnh22JDfZN2XwckWMpwOe3fQu7Tu3Ekct7xhgcrenGax6sqACEuXmzfQQQWqYyKZbXroROr4cveyXOlD+E0AxMg3PTu3hbne1B9swEIGpJROngQdQMvAyNNJV1NdJTBSDE98xUDz/+k4V/kqCAk/ie9lWotdAAQpapAHW568LHAxKDAfIqFNvKWaWRjhiOd++B3ZiJpTnr0ONqQ8vwKZZ/3lhyJ/pcbSiwl+KNlqfg9A+jIqsBWaZcnOghxUc38qyLUZe9Bs2Dx1jDgQoJPG1dfDeONR/C6a6D/BsBhOxDPqi8Mj3ssNuHzkEXB5fptRpYl6bDvCE9HK+ggllrgS/kkY8nImfJOSboDFfbfTxxUi04gMCcA0zbwwOJcAdE955SVsPURSoKyXbK3zSv24020mKYRLVcXrMCOoMe/sxluLT4g1GpliOdibU8z7zsyi1EYjb8EjGeTo2HmatU60SMqZIkWEIeZPk6Udf3PNTSFWKp8e0oACE+qzJAiFV1tngvvi68j2tdh8AmAhDyW0049uwhBDz+OX/ApZuq8JFf/FVSWQxEJJNlymcZZ1JKIPGl0cAQKzSqVTqEpCCLNlHcgFatYzEniiOg6ygGgdG1ikIIAry4mHQWBENB/jcVOd5Aw2BhfNGpDQh4BQz1jfCirxaB9AsCDH0iiInG5RfQ1jMkB2tZ1bCtzoC+Qo48j1bo451ZaJXpq69hWWgAIcIpMMFkBLomaxrQMc6k3blaJUKtCkGtFpPS2EjkMbldblw8T2mOE9Ucq5YshcGgh2lxCezrV08TpBqeFxxhmZwmCPWXOCKG3GnoGMnGZX8RAtK1BaSxbGgKerC19d+gF0aiVkk08C+RZzVT3Vj0yLEyK5LJuEhVFsP/Bwjx/Nm3AkZOAAAAAElFTkSuQmCC;" vertex="1" parent="1">
                    <mxGeometry x="10" y="10" width="520" height="269" as="geometry"/>
                </mxCell>
                <mxCell id="3" value="" style="whiteSpace=wrap;html=1;fillColor=none;strokeColor=#FF0000;strokeWidth=3;" vertex="1" parent="1">
                    <mxGeometry x="150" y="100" width="50" height="50" as="geometry"/>
                </mxCell>
                <mxCell id="4" value="" style="whiteSpace=wrap;html=1;fillColor=none;strokeColor=#FF0000;strokeWidth=3;" vertex="1" parent="1">
                    <mxGeometry x="190" y="200" width="100" height="60" as="geometry"/>
                </mxCell>
            </root>
        </mxGraphModel>
    </diagram>
</mxfile>